<?xml version="1.0" encoding="UTF-8" standalone="no"?>
<!-- Created with Inkscape (http://www.inkscape.org/) -->

<svg
   xmlns:dc="http://purl.org/dc/elements/1.1/"
   xmlns:cc="http://creativecommons.org/ns#"
   xmlns:rdf="http://www.w3.org/1999/02/22-rdf-syntax-ns#"
   xmlns:svg="http://www.w3.org/2000/svg"
   xmlns="http://www.w3.org/2000/svg"
   xmlns:xlink="http://www.w3.org/1999/xlink"
   xmlns:sodipodi="http://sodipodi.sourceforge.net/DTD/sodipodi-0.dtd"
   xmlns:inkscape="http://www.inkscape.org/namespaces/inkscape"
   width="840"
   height="600"
   id="svg2"
   version="1.1"
   inkscape:version="0.48.2 r9819"
   sodipodi:docname="aerogear_unified_push_server.svg">
  <defs
     id="defs4">
    <linearGradient
       inkscape:collect="always"
       id="linearGradient4380">
      <stop
         style="stop-color:#87b3c3;stop-opacity:1;"
         offset="0"
         id="stop4382" />
      <stop
         style="stop-color:#87b3c3;stop-opacity:0;"
         offset="1"
         id="stop4384" />
    </linearGradient>
    <linearGradient
       inkscape:collect="always"
       id="linearGradient4372">
      <stop
         style="stop-color:#87b3c3;stop-opacity:1;"
         offset="0"
         id="stop4374" />
      <stop
         style="stop-color:#87b3c3;stop-opacity:0;"
         offset="1"
         id="stop4376" />
    </linearGradient>
    <linearGradient
       inkscape:collect="always"
       xlink:href="#linearGradient4372"
       id="linearGradient4378"
       x1="425.85532"
       y1="663.06085"
       x2="425.85532"
       y2="609.28949"
       gradientUnits="userSpaceOnUse"
       gradientTransform="translate(71.62905,-33)" />
    <linearGradient
       inkscape:collect="always"
       xlink:href="#linearGradient4380"
       id="linearGradient4386"
       x1="361.34842"
       y1="720.46765"
       x2="148.11696"
       y2="720.46765"
       gradientUnits="userSpaceOnUse"
       gradientTransform="translate(60,-33.98046)" />
  </defs>
  <sodipodi:namedview
     id="base"
     pagecolor="#ffffff"
     bordercolor="#999999"
     borderopacity="0.17254902"
     inkscape:pageopacity="1"
     inkscape:pageshadow="2"
     inkscape:zoom="1"
     inkscape:cx="378.93434"
     inkscape:cy="351.81017"
     inkscape:document-units="px"
     inkscape:current-layer="layer1"
     showgrid="false"
     inkscape:showpageshadow="false"
     inkscape:window-width="1131"
     inkscape:window-height="876"
     inkscape:window-x="718"
     inkscape:window-y="80"
     inkscape:window-maximized="0">
    <inkscape:grid
       type="xygrid"
       id="grid4438"
       empspacing="5"
       visible="true"
       enabled="true"
       snapvisiblegridlinesonly="true" />
  </sodipodi:namedview>
  <metadata
     id="metadata7">
    <rdf:RDF>
      <cc:Work
         rdf:about="">
        <dc:format>image/svg+xml</dc:format>
        <dc:type
           rdf:resource="http://purl.org/dc/dcmitype/StillImage" />
        <dc:title></dc:title>
      </cc:Work>
    </rdf:RDF>
  </metadata>
  <g
     inkscape:label="Layer 1"
     inkscape:groupmode="layer"
     id="layer1"
     transform="translate(0,-452.36218)">
    <rect
       style="fill:#d6e4ea;fill-opacity:1;stroke:none"
       id="rect2993"
       width="375.40866"
       height="198.19818"
       x="413.36243"
       y="622.5379"
       ry="10.5"
       rx="10.5" />
    <path
       sodipodi:nodetypes="ccccc"
       style="fill:#5390a6;fill-opacity:1;stroke:none"
       d="m 678.06275,646.83093 0,149.85161 86.82357,0 0,-149.85161 z"
       id="path4419"
       inkscape:connector-curvature="0" />
    <rect
       y="682.039"
       x="54.770111"
       height="81.181381"
       width="47.659237"
       id="rect3763"
       style="fill:#e25027;fill-opacity:1;stroke:none"
       rx="7.4246211"
       ry="7.4246211" />
    <rect
       style="fill:#e25027;fill-opacity:1;stroke:none"
       id="rect3765"
       width="47.659237"
       height="81.181381"
       x="124.78543"
       y="682.039"
       rx="3"
       ry="3" />
    <flowRoot
       transform="matrix(0.37514515,0,0,0.37507197,11.908863,720.18322)"
       style="font-size:31.99073982000000171px;font-style:normal;font-variant:normal;font-weight:normal;font-stretch:normal;text-align:center;line-height:125%;letter-spacing:0px;word-spacing:0px;text-anchor:middle;fill:#7a7a7a;fill-opacity:1;stroke:none;font-family:Open Sans;-inkscape-font-specification:Open Sans"
       id="flowRoot3767"
       xml:space="preserve"><flowRegion
         id="flowRegion3769"><rect
           style="font-size:31.99073982000000171px;font-style:normal;font-variant:normal;font-weight:normal;font-stretch:normal;text-align:center;text-anchor:middle;fill:#7a7a7a;fill-opacity:1;font-family:Open Sans;-inkscape-font-specification:Open Sans"
           y="151.36218"
           x="76"
           height="124.60641"
           width="203.98579"
           id="rect3771" /></flowRegion><flowPara
         id="flowPara3773">AeroGear</flowPara><flowPara
         id="flowPara3791"
         style="font-weight:bold;-inkscape-font-specification:Open Sans Bold">iOS</flowPara></flowRoot>    <flowRoot
       xml:space="preserve"
       id="flowRoot3775"
       style="font-size:31.99073982000000171px;font-style:normal;font-variant:normal;font-weight:normal;font-stretch:normal;text-align:center;line-height:125%;letter-spacing:0px;word-spacing:0px;text-anchor:middle;fill:#7a7a7a;fill-opacity:1;stroke:none;font-family:Open Sans;-inkscape-font-specification:Open Sans"
       transform="matrix(0.37514515,0,0,0.37507197,53.952422,720.18322)"><flowRegion
         id="flowRegion3777"><rect
           id="rect3779"
           width="353.11111"
           height="157.66667"
           x="76"
           y="151.36218"
           style="font-size:31.99073982000000171px;font-style:normal;font-variant:normal;font-weight:normal;font-stretch:normal;text-align:center;text-anchor:middle;fill:#7a7a7a;fill-opacity:1;font-family:Open Sans;-inkscape-font-specification:Open Sans" /></flowRegion><flowPara
         id="flowPara3781">AeroGear</flowPara><flowPara
         id="flowPara3793"
         style="font-weight:bold;-inkscape-font-specification:Open Sans Bold">Android</flowPara></flowRoot>    <flowRoot
       transform="matrix(0.37514515,0,0,0.37507197,455.48029,537.99018)"
       style="font-size:40px;font-style:normal;font-variant:normal;font-weight:bold;font-stretch:normal;text-align:end;line-height:125%;letter-spacing:-0.79976851px;word-spacing:0px;text-anchor:end;fill:#073e52;fill-opacity:1;stroke:none;font-family:Open Sans;-inkscape-font-specification:Open Sans Bold"
       id="flowRoot3783"
       xml:space="preserve"><flowRegion
         id="flowRegion3785"><rect
           style="font-style:normal;font-variant:normal;font-weight:bold;font-stretch:normal;text-align:end;letter-spacing:-0.79976851px;text-anchor:end;fill:#073e52;fill-opacity:1;font-family:Open Sans;-inkscape-font-specification:Open Sans Bold"
           y="151.36218"
           x="76"
           height="65.683044"
           width="749.82672"
           id="rect3787" /></flowRegion><flowPara
         id="flowPara3789">AeroGear Unified Push Server</flowPara></flowRoot>    <flowRoot
       xml:space="preserve"
       id="flowRoot3819"
       style="font-size:40px;font-style:normal;font-variant:normal;font-weight:bold;font-stretch:normal;text-align:start;line-height:125%;letter-spacing:-0.79976851px;word-spacing:0px;text-anchor:start;fill:#073e52;fill-opacity:1;stroke:none;font-family:Open Sans;-inkscape-font-specification:Open Sans Bold"
       transform="matrix(0.37514515,0,0,0.37507197,27.49218,564.65289)"><flowRegion
         id="flowRegion3821"><rect
           id="rect3823"
           width="408.6254"
           height="153.66615"
           x="76"
           y="151.36218"
           style="font-style:normal;font-variant:normal;font-weight:bold;font-stretch:normal;text-align:start;letter-spacing:-0.79976851px;text-anchor:start;fill:#073e52;fill-opacity:1;font-family:Open Sans;-inkscape-font-specification:Open Sans Bold" /></flowRegion><flowPara
         id="flowPara3827">Push Applications</flowPara><flowPara
         id="flowPara4566">on mobile devices</flowPara></flowRoot>    <flowRoot
       xml:space="preserve"
       id="flowRoot3843"
       style="font-size:31.99073982px;font-style:normal;font-variant:normal;font-weight:bold;font-stretch:normal;text-align:center;line-height:125%;letter-spacing:0px;word-spacing:0px;text-anchor:middle;fill:#ffffff;fill-opacity:1;stroke:none;font-family:Open Sans;-inkscape-font-specification:Open Sans Bold"
       transform="matrix(0.37514515,0,0,0.37507197,598.55095,653.25781)"><flowRegion
         id="flowRegion3845"><rect
           id="rect3847"
           width="504.22223"
           height="115.44444"
           x="76"
           y="151.36218"
           style="font-size:31.99073982px;font-style:normal;font-variant:normal;font-weight:bold;font-stretch:normal;text-align:center;text-anchor:middle;fill:#ffffff;fill-opacity:1;font-family:Open Sans;-inkscape-font-specification:Open Sans Bold" /></flowRegion><flowPara
         id="flowPara3849">Storage</flowPara></flowRoot>    <g
       id="g4510"
       transform="translate(23,1.875)">
      <path
         sodipodi:type="arc"
         style="fill:#e25027;fill-opacity:1;stroke:none"
         id="path3861"
         sodipodi:cx="184"
         sodipodi:cy="95"
         sodipodi:rx="14"
         sodipodi:ry="14"
         d="m 198,95 c 0,7.73199 -6.26801,14 -14,14 -7.73199,0 -14,-6.26801 -14,-14 0,-7.731986 6.26801,-14 14,-14 7.73199,0 14,6.268014 14,14 z"
         transform="matrix(0.71428571,0,0,0.71428571,75.82417,573.92788)" />
      <flowRoot
         transform="matrix(0.37514515,0,0,0.37507197,122.1685,575.97133)"
         style="font-size:37.33410263px;font-style:normal;font-variant:normal;font-weight:bold;font-stretch:normal;text-align:center;line-height:125%;letter-spacing:0px;word-spacing:0px;text-anchor:middle;fill:#ffffff;fill-opacity:1;stroke:none;font-family:Open Sans;-inkscape-font-specification:Open Sans Bold"
         id="flowRoot3863"
         xml:space="preserve"><flowRegion
           id="flowRegion3865"><rect
             style="font-size:37.33410263px;font-style:normal;font-variant:normal;font-weight:bold;font-stretch:normal;text-align:center;text-anchor:middle;fill:#ffffff;fill-opacity:1;font-family:Open Sans;-inkscape-font-specification:Open Sans Bold"
             y="151.36218"
             x="76"
             height="151"
             width="302"
             id="rect3867" /></flowRegion><flowPara
           id="flowPara3869">2</flowPara></flowRoot>    </g>
    <g
       id="g4442"
       transform="translate(59.283626,-33)">
      <flowRoot
         transform="matrix(0.37514818,0,0,0.375075,377.39005,470.89432)"
         style="font-size:40px;font-style:normal;font-variant:normal;font-weight:bold;font-stretch:normal;text-align:start;line-height:125%;letter-spacing:-0.79976201px;word-spacing:0px;text-anchor:start;fill:#073e52;fill-opacity:1;stroke:none;font-family:Open Sans;-inkscape-font-specification:Open Sans Bold"
         id="flowRoot2985"
         xml:space="preserve"><flowRegion
           id="flowRegion2987"><rect
             style="font-style:normal;font-variant:normal;font-weight:bold;font-stretch:normal;letter-spacing:-0.79976201px;fill:#073e52;fill-opacity:1;font-family:Open Sans;-inkscape-font-specification:Open Sans Bold"
             y="151.36218"
             x="76"
             height="151"
             width="302"
             id="rect2989" /></flowRegion><flowPara
           id="flowPara2991">Administrator</flowPara></flowRoot>      <path
         transform="matrix(0.71428571,0,0,0.71428571,257.65023,469.17304)"
         d="m 198,95 c 0,7.73199 -6.26801,14 -14,14 -7.73199,0 -14,-6.26801 -14,-14 0,-7.731986 6.26801,-14 14,-14 7.73199,0 14,6.268014 14,14 z"
         sodipodi:ry="14"
         sodipodi:rx="14"
         sodipodi:cy="95"
         sodipodi:cx="184"
         id="path3851"
         style="fill:#e25027;fill-opacity:1;stroke:none"
         sodipodi:type="arc" />
      <flowRoot
         xml:space="preserve"
         id="flowRoot3853"
         style="font-size:37.33410263px;font-style:normal;font-variant:normal;font-weight:bold;font-stretch:normal;text-align:center;line-height:125%;letter-spacing:0px;word-spacing:0px;text-anchor:middle;fill:#ffffff;fill-opacity:1;stroke:none;font-family:Open Sans;-inkscape-font-specification:Open Sans Bold"
         transform="matrix(0.37514515,0,0,0.37507197,303.56883,471.4199)"><flowRegion
           id="flowRegion3855"><rect
             id="rect3857"
             width="302"
             height="151"
             x="76"
             y="151.36218"
             style="font-size:37.33410263px;font-style:normal;font-variant:normal;font-weight:bold;font-stretch:normal;text-align:center;text-anchor:middle;fill:#ffffff;fill-opacity:1;font-family:Open Sans;-inkscape-font-specification:Open Sans Bold" /></flowRegion><flowPara
           id="flowPara3859">1</flowPara></flowRoot>      <flowRoot
         transform="matrix(0.37514515,0,0,0.37507197,371.91405,496.98515)"
         style="font-size:31.99073982px;font-style:normal;font-variant:normal;font-weight:normal;font-stretch:normal;text-align:center;line-height:125%;letter-spacing:0px;word-spacing:0px;text-anchor:middle;fill:#7a7a7a;fill-opacity:1;stroke:none;font-family:Open Sans;-inkscape-font-specification:Open Sans"
         id="flowRoot3891"
         xml:space="preserve"><flowRegion
           id="flowRegion3893"><rect
             style="font-size:31.99073982px;font-style:normal;font-variant:normal;font-weight:normal;font-stretch:normal;text-align:center;text-anchor:middle;fill:#7a7a7a;fill-opacity:1;font-family:Open Sans;-inkscape-font-specification:Open Sans"
             y="151.36218"
             x="76"
             height="307.40762"
             width="706.81049"
             id="rect3895" /></flowRegion><flowPara
           style="font-size:31.99073982px;text-align:start;text-anchor:start;fill:#7a7a7a;fill-opacity:1"
           id="flowPara3897">Registers Push Application</flowPara><flowPara
           id="flowPara3899"
           style="font-size:31.99073982px;text-align:start;text-anchor:start;fill:#7a7a7a;fill-opacity:1">Adds iOS variant for Push Application</flowPara><flowPara
           id="flowPara3901"
           style="font-size:31.99073982px;text-align:start;text-anchor:start;fill:#7a7a7a;fill-opacity:1">Adds Android variant for Push Application</flowPara></flowRoot>      <path
         sodipodi:type="arc"
         style="fill:#5390a6;fill-opacity:1;stroke:none"
         id="path3903"
         sodipodi:cx="184"
         sodipodi:cy="95"
         sodipodi:rx="14"
         sodipodi:ry="14"
         d="m 198,95 c 0,7.73199 -6.26801,14 -14,14 -7.73199,0 -14,-6.26801 -14,-14 0,-7.731986 6.26801,-14 14,-14 7.73199,0 14,6.268014 14,14 z"
         transform="matrix(0.20920944,0,0,0.20920944,350.58426,542.3308)" />
      <path
         transform="matrix(0.20920944,0,0,0.20920944,350.58426,557.3256)"
         d="m 198,95 c 0,7.73199 -6.26801,14 -14,14 -7.73199,0 -14,-6.26801 -14,-14 0,-7.731986 6.26801,-14 14,-14 7.73199,0 14,6.268014 14,14 z"
         sodipodi:ry="14"
         sodipodi:rx="14"
         sodipodi:cy="95"
         sodipodi:cx="184"
         id="path3905"
         style="fill:#5390a6;fill-opacity:1;stroke:none"
         sodipodi:type="arc" />
      <path
         sodipodi:type="arc"
         style="fill:#5390a6;fill-opacity:1;stroke:none"
         id="path3907"
         sodipodi:cx="184"
         sodipodi:cy="95"
         sodipodi:rx="14"
         sodipodi:ry="14"
         d="m 198,95 c 0,7.73199 -6.26801,14 -14,14 -7.73199,0 -14,-6.26801 -14,-14 0,-7.731986 6.26801,-14 14,-14 7.73199,0 14,6.268014 14,14 z"
         transform="matrix(0.20920944,0,0,0.20920944,350.58426,572.43283)" />
    </g>
    <rect
       ry="0"
       rx="0"
       style="opacity:1;fill:#eb8467;fill-opacity:1;stroke:none"
       id="rect3932"
       width="40.921814"
       height="54.605972"
       x="58.138824"
       y="692.20941" />
    <path
       sodipodi:type="arc"
       style="opacity:1;fill:#eb8467;fill-opacity:1;stroke:none"
       id="path3934"
       sodipodi:cx="184"
       sodipodi:cy="95"
       sodipodi:rx="14"
       sodipodi:ry="14"
       d="m 198,95 a 14,14 0 1 1 -28,0 14,14 0 1 1 28,0 z"
       transform="matrix(0.27400837,0,0,0.27400837,28.182189,729.13285)" />
    <rect
       y="688.71686"
       x="128.15414"
       height="61.274632"
       width="40.921814"
       id="rect3936"
       style="opacity:1;fill:#eb8467;fill-opacity:1;stroke:none"
       rx="0"
       ry="0" />
    <path
       transform="matrix(0.17374906,0,0,0.17374906,106.19071,740.29757)"
       d="m 198,95 a 14,14 0 1 1 -28,0 14,14 0 1 1 28,0 z"
       sodipodi:ry="14"
       sodipodi:rx="14"
       sodipodi:cy="95"
       sodipodi:cx="184"
       id="path3938"
       style="opacity:1;fill:#eb8467;fill-opacity:1;stroke:none"
       sodipodi:type="arc" />
    <path
       sodipodi:type="arc"
       style="opacity:1;fill:#eb8467;fill-opacity:1;stroke:none"
       id="path3940"
       sodipodi:cx="184"
       sodipodi:cy="95"
       sodipodi:rx="14"
       sodipodi:ry="14"
       d="m 198,95 a 14,14 0 1 1 -28,0 14,14 0 1 1 28,0 z"
       transform="matrix(0.17374906,0,0,0.17374906,116.64523,740.29757)" />
    <path
       transform="matrix(0.17374906,0,0,0.17374906,127.09973,740.29757)"
       d="m 198,95 a 14,14 0 1 1 -28,0 14,14 0 1 1 28,0 z"
       sodipodi:ry="14"
       sodipodi:rx="14"
       sodipodi:cy="95"
       sodipodi:cx="184"
       id="path3942"
       style="opacity:1;fill:#eb8467;fill-opacity:1;stroke:none"
       sodipodi:type="arc" />
    <flowRoot
       xml:space="preserve"
       id="flowRoot3946"
       style="font-size:26.65894889999999862px;font-style:normal;font-variant:normal;font-weight:normal;font-stretch:normal;text-align:start;line-height:125%;letter-spacing:0px;word-spacing:0px;text-anchor:start;opacity:0.66000000000000003;fill:#335866;fill-opacity:1;stroke:none;font-family:Open Sans;-inkscape-font-specification:Open Sans"
       transform="matrix(0.37514515,0,0,0.37507197,540.21277,594.3387)"><flowRegion
         id="flowRegion3948"><rect
           id="rect3950"
           width="269.10101"
           height="103.56928"
           x="76"
           y="151.36218"
           style="font-size:26.65894889999999862px;font-style:normal;font-variant:normal;font-weight:normal;font-stretch:normal;text-align:start;text-anchor:start;fill:#335866;fill-opacity:1;font-family:Open Sans;-inkscape-font-specification:Open Sans" /></flowRegion><flowPara
         style="font-size:26.65894889999999862px;text-align:start;text-anchor:start;fill:#335866;fill-opacity:1"
         id="flowPara3954">writes Push Application details...</flowPara></flowRoot>    <flowRoot
       transform="matrix(0.37514515,0,0,0.37507197,219.61967,571.60037)"
       style="font-size:31.99073982px;font-style:normal;font-variant:normal;font-weight:normal;font-stretch:normal;text-align:start;line-height:125%;letter-spacing:0px;word-spacing:0px;text-anchor:start;color:#000000;fill:#7a7a7a;fill-opacity:1;fill-rule:nonzero;stroke:none;marker:none;visibility:visible;display:inline;overflow:visible;enable-background:accumulate;font-family:Open Sans;-inkscape-font-specification:Open Sans"
       id="flowRoot3966"
       xml:space="preserve"><flowRegion
         id="flowRegion3968"><rect
           style="font-size:31.99073982px;font-style:normal;font-variant:normal;font-weight:normal;font-stretch:normal;text-align:start;text-anchor:start;color:#000000;fill:#7a7a7a;fill-opacity:1;fill-rule:nonzero;stroke:none;marker:none;visibility:visible;display:inline;overflow:visible;enable-background:accumulate;font-family:Open Sans;-inkscape-font-specification:Open Sans"
           y="151.36218"
           x="76"
           height="83.395081"
           width="395.30054"
           id="rect3970" /></flowRegion><flowPara
         id="flowPara3972"
         style="font-size:31.99073982px;text-align:start;text-anchor:start;color:#000000;fill:#7a7a7a;fill-opacity:1;fill-rule:nonzero;stroke:none;marker:none;visibility:visible;display:inline;overflow:visible;enable-background:accumulate">Push Applications register themselves using a token</flowPara></flowRoot>    <g
       id="g4575"
       transform="translate(1,-8)">
      <g
         transform="translate(40,2.875)"
         id="g4503">
        <path
           transform="matrix(0.71428571,0,0,0.71428571,96.12569,744.22078)"
           d="m 198,95 c 0,7.73199 -6.26801,14 -14,14 -7.73199,0 -14,-6.26801 -14,-14 0,-7.731986 6.26801,-14 14,-14 7.73199,0 14,6.268014 14,14 z"
           sodipodi:ry="14"
           sodipodi:rx="14"
           sodipodi:cy="95"
           sodipodi:cx="184"
           id="path3881"
           style="fill:#e25027;fill-opacity:1;stroke:none"
           sodipodi:type="arc" />
        <flowRoot
           xml:space="preserve"
           id="flowRoot3883"
           style="font-size:37.33410263px;font-style:normal;font-variant:normal;font-weight:bold;font-stretch:normal;text-align:center;line-height:125%;letter-spacing:0px;word-spacing:0px;text-anchor:middle;fill:#ffffff;fill-opacity:1;stroke:none;font-family:Open Sans;-inkscape-font-specification:Open Sans Bold"
           transform="matrix(0.37514515,0,0,0.37507197,141.92455,746.31675)"><flowRegion
             id="flowRegion3885"><rect
               id="rect3887"
               width="302"
               height="151"
               x="76"
               y="151.36218"
               style="font-size:37.33410263px;font-style:normal;font-variant:normal;font-weight:bold;font-stretch:normal;text-align:center;text-anchor:middle;fill:#ffffff;fill-opacity:1;font-family:Open Sans;-inkscape-font-specification:Open Sans Bold" /></flowRegion><flowPara
             id="flowPara3889">4</flowPara></flowRoot>      </g>
      <flowRoot
         transform="matrix(0.37514515,0,0,0.37507197,257.31816,743.13443)"
         style="font-size:31.99073982000000171px;font-style:normal;font-variant:normal;font-weight:normal;font-stretch:normal;text-align:start;line-height:125%;letter-spacing:0px;word-spacing:0px;text-anchor:start;color:#000000;fill:#7a7a7a;fill-opacity:1;fill-rule:nonzero;stroke:none;marker:none;visibility:visible;display:inline;overflow:visible;enable-background:accumulate;font-family:Open Sans;-inkscape-font-specification:Open Sans"
         id="flowRoot3978"
         xml:space="preserve"><flowRegion
           id="flowRegion3980"><rect
             style="font-size:31.99073982000000171px;font-style:normal;font-variant:normal;font-weight:normal;font-stretch:normal;text-align:start;text-anchor:start;color:#000000;fill:#7a7a7a;fill-opacity:1;fill-rule:nonzero;stroke:none;marker:none;visibility:visible;display:inline;overflow:visible;enable-background:accumulate;font-family:Open Sans;-inkscape-font-specification:Open Sans"
             y="151.36218"
             x="76"
             height="120.64277"
             width="341.95535"
             id="rect3982" /></flowRegion><flowPara
           id="flowPara3984"
           style="font-size:31.99073982000000171px;text-align:start;text-anchor:start;color:#000000;fill:#7a7a7a;fill-opacity:1;fill-rule:nonzero;stroke:none;marker:none;visibility:visible;display:inline;overflow:visible;enable-background:accumulate">Deliver message</flowPara><flowPara
           id="flowPara4429"
           style="font-size:31.99073982000000171px;text-align:start;text-anchor:start;color:#000000;fill:#7a7a7a;fill-opacity:1;fill-rule:nonzero;stroke:none;marker:none;visibility:visible;display:inline;overflow:visible;enable-background:accumulate">(via PushNetworks)</flowPara></flowRoot>    </g>
    <path
       style="fill:#87b3c3;fill-opacity:1;stroke:none"
       d="m 546.94401,687.21413 119.90792,0 0,-7.99407 16.82488,12.57832 -16.82488,12.30162 0,-7.52361 -120.33934,-10e-6"
       id="path3986"
       inkscape:connector-curvature="0"
       sodipodi:nodetypes="ccccccc" />
    <flowRoot
       xml:space="preserve"
       id="flowRoot3992"
       style="font-size:40px;font-style:normal;font-variant:normal;font-weight:bold;font-stretch:normal;text-align:start;line-height:125%;letter-spacing:-0.79976851px;word-spacing:0px;text-anchor:start;fill:#073e52;fill-opacity:1;stroke:none;font-family:Open Sans;-inkscape-font-specification:Open Sans Bold"
       transform="matrix(0.37514515,0,0,0.37507197,455.4803,832.81861)"><flowRegion
         id="flowRegion3994"><rect
           id="rect3996"
           width="749.82672"
           height="65.683044"
           x="76"
           y="151.36218"
           style="font-style:normal;font-variant:normal;font-weight:bold;font-stretch:normal;letter-spacing:-0.79976851px;fill:#073e52;fill-opacity:1;font-family:Open Sans;-inkscape-font-specification:Open Sans Bold" /></flowRegion><flowPara
         id="flowPara3998"
         style="text-align:end;letter-spacing:-0.79976851px;text-anchor:end;fill:#073e52;fill-opacity:1">JBoss AS backend server</flowPara></flowRoot>    <g
       id="g4517"
       transform="translate(39.5,2)">
      <path
         transform="matrix(0.71428571,0,0,0.71428571,368.07143,786.50504)"
         d="m 198,95 c 0,7.73199 -6.26801,14 -14,14 -7.73199,0 -14,-6.26801 -14,-14 0,-7.731986 6.26801,-14 14,-14 7.73199,0 14,6.268014 14,14 z"
         sodipodi:ry="14"
         sodipodi:rx="14"
         sodipodi:cy="95"
         sodipodi:cx="184"
         id="path3871"
         style="fill:#e25027;fill-opacity:1;stroke:none"
         sodipodi:type="arc" />
      <flowRoot
         xml:space="preserve"
         id="flowRoot3873"
         style="font-size:37.33410263px;font-style:normal;font-variant:normal;font-weight:bold;font-stretch:normal;text-align:center;line-height:125%;letter-spacing:0px;word-spacing:0px;text-anchor:middle;fill:#ffffff;fill-opacity:1;stroke:none;font-family:Open Sans;-inkscape-font-specification:Open Sans Bold"
         transform="matrix(0.37514515,0,0,0.37507197,414.61794,788.69307)"><flowRegion
           id="flowRegion3875"><rect
             id="rect3877"
             width="302"
             height="151"
             x="76"
             y="151.36218"
             style="font-size:37.33410263px;font-style:normal;font-variant:normal;font-weight:bold;font-stretch:normal;text-align:center;text-anchor:middle;fill:#ffffff;fill-opacity:1;font-family:Open Sans;-inkscape-font-specification:Open Sans Bold" /></flowRegion><flowPara
           id="flowPara3879">3</flowPara></flowRoot>      <flowRoot
         xml:space="preserve"
         id="flowRoot4002"
         style="font-size:31.99073982000000171px;font-style:normal;font-variant:normal;font-weight:normal;font-stretch:normal;text-align:center;line-height:125%;letter-spacing:0px;word-spacing:0px;text-anchor:middle;color:#000000;fill:#7a7a7a;fill-opacity:1;fill-rule:nonzero;stroke:none;marker:none;visibility:visible;display:inline;overflow:visible;enable-background:accumulate;font-family:Open Sans;-inkscape-font-specification:Open Sans"
         transform="matrix(0.37514515,0,0,0.37507197,488.0605,782.81406)"><flowRegion
           id="flowRegion4004"><rect
             id="rect4006"
             width="353.4906"
             height="164.21616"
             x="76"
             y="151.36218"
             style="font-size:31.99073982000000171px;font-style:normal;font-variant:normal;font-weight:normal;font-stretch:normal;text-align:center;text-anchor:middle;color:#000000;fill:#7a7a7a;fill-opacity:1;fill-rule:nonzero;stroke:none;marker:none;visibility:visible;display:inline;overflow:visible;enable-background:accumulate;font-family:Open Sans;-inkscape-font-specification:Open Sans" /></flowRegion><flowPara
           id="flowPara4440"
           style="font-size:31.99073982000000171px;text-align:start;text-anchor:start;color:#000000;fill:#7a7a7a;fill-opacity:1;fill-rule:nonzero;stroke:none;marker:none;visibility:visible;display:inline;overflow:visible;enable-background:accumulate">Event on server occurs and invokes Sender API</flowPara></flowRoot>    </g>
    <g
       style="overflow:visible"
       id="g4319"
       transform="matrix(0.64360144,0,0,0.64360144,636.83158,975.87788)">
      <path
         id="path4285"
         d="m 157.796,34.816 c -4.404,0 -8.809,0 -13.214,0 -0.009,0.496 -0.093,1.162 0,1.723 0.033,0.198 0.061,0.614 0.144,0.862 0.024,0.071 0.22,0.479 0.287,0.574 0.393,0.558 2.032,1.073 3.161,1.149 2.694,0.183 6.599,-0.687 8.188,-1.149 0.601,1.649 0.889,3.611 1.149,5.602 -3.531,1.076 -7.602,1.854 -11.491,1.438 -0.505,-0.055 -0.768,-0.013 -1.437,-0.145 -0.074,-0.015 -1.158,-0.27 -1.867,-0.574 -0.586,-0.252 -1.783,-0.901 -2.441,-1.436 -0.306,-0.248 -0.631,-0.473 -0.862,-0.719 -0.124,-0.132 -0.642,-0.744 -0.719,-0.862 -0.183,-0.278 -0.493,-1.021 -0.718,-1.579 -0.122,-0.304 -0.201,-0.576 -0.287,-0.862 -0.927,-3.081 -1.029,-11.222 0.287,-14.076 0.171,-0.372 0.42,-1.273 0.718,-1.724 0.104,-0.156 0.533,-0.432 0.719,-0.719 0.707,-1.092 2.493,-1.991 4.022,-2.44 0.28,-0.084 0.973,-0.32 1.579,-0.433 0.969,-0.179 2.985,-0.178 3.591,-0.143 0.592,0.033 1.202,0.068 1.724,0.143 0.211,0.03 1.125,0.154 1.582,0.32 0.667,0.242 1.968,0.86 2.153,0.973 0.65,0.395 1.393,1.05 1.724,1.437 0.224,0.262 0.506,0.778 0.718,1.149 1.506,2.643 1.374,6.821 1.29,11.491 z m -6.894,-7.469 c -0.031,-0.382 -0.206,-0.853 -0.287,-1.006 -0.284,-0.539 -0.803,-0.826 -0.862,-0.861 -0.605,-0.351 -2.208,-0.448 -3.017,-0.287 -1.812,0.362 -2.403,2.151 -2.154,4.022 2.107,0 4.213,0 6.32,0 0.024,-0.548 0.05,-1.244 0,-1.868 z"
         clip-rule="evenodd"
         inkscape:connector-curvature="0"
         style="fill:#e25027;fill-rule:evenodd" />
      <path
         id="path4287"
         d="m 180.447,44.583 c -0.747,0 -1.81,0 -2.874,0 -0.98,0 -2.511,0.027 -2.75,-0.084 -0.677,-0.312 -0.594,-0.796 -0.84,-1.496 -2.365,1.271 -6.307,2.979 -9.623,1.725 -0.286,-0.107 -1.257,-0.579 -1.725,-1.006 -1.143,-1.043 -1.982,-3.093 -2.155,-5.027 -0.289,-3.246 0.613,-5.812 2.586,-7.038 0.514,-0.319 1.683,-0.879 2.729,-1.006 2.406,-0.293 4.224,0.21 7.325,0 0.048,-0.493 0.025,-1.197 0,-1.867 -0.03,-0.794 0.015,-1.429 -0.143,-1.867 -0.19,-0.526 -0.733,-1.034 -1.293,-1.292 -0.476,-0.22 -1.89,-0.287 -2.729,-0.287 -2.407,0 -5.365,0.494 -6.894,0.718 -0.197,-1.91 -0.685,-3.529 -0.862,-5.458 2.138,-0.888 5.282,-0.979 7.9,-1.293 0.721,-0.088 1.544,-0.042 2.442,0 1.622,0.074 2.962,0.282 4.309,0.718 1.119,0.362 1.583,0.627 2.298,1.149 0.33,0.24 0.697,0.623 0.828,0.775 0.227,0.266 0.675,0.939 0.896,1.522 0.465,1.229 0.65,3.268 0.719,4.884 0.208,4.959 -0.045,11.618 -0.144,16.23 z M 167.95,36.109 c -0.572,0.552 -0.563,2.294 0,2.872 0.396,0.406 0.886,0.436 0.862,0.432 1.437,0.307 3.808,-0.526 4.452,-1.149 -0.333,-0.577 -0.049,-1.771 -0.144,-2.586 -1.693,0.194 -4.302,-0.407 -5.17,0.431 z"
         clip-rule="evenodd"
         inkscape:connector-curvature="0"
         style="fill:#e25027;fill-rule:evenodd" />
      <path
         id="path4289"
         d="m 198.787,26.197 c -2.264,1.041 -4.635,1.973 -6.607,3.305 0,5.026 0,10.055 0,15.081 -2.442,0 -4.884,0 -7.326,0 0,-8.283 0,-16.566 0,-24.849 1.653,-0.003 4.484,-0.015 5.879,0.09 0.295,0 0.24,0.369 0.441,1.06 0.109,0.374 0.168,0.805 0.287,1.149 0.042,0.155 0.168,0.08 0.287,0 0.646,-0.438 1.685,-1.019 2.586,-1.437 1.076,-0.501 2.416,-0.957 3.591,-1.293 0.122,-0.027 0.135,0.056 0.144,0.143 0.232,1.098 0.564,4.328 0.718,6.751 z"
         clip-rule="evenodd"
         inkscape:connector-curvature="0"
         style="fill:#e25027;fill-rule:evenodd" />
      <path
         id="path4291"
         d="m 10.485,23.951 c 3.304,0 6.608,0 9.912,0 0.917,2.813 1.727,5.646 2.585,8.474 0.639,2.104 1.393,4.201 2.011,6.32 0.214,0.733 0.358,1.449 0.575,2.154 1.726,5.643 3.577,11.24 5.171,16.949 -2.634,0 -5.267,0 -7.9,0 -0.65,-2.176 -1.191,-4.458 -1.868,-6.607 -0.29,0.004 -10.783,0.059 -11.203,0.144 -0.733,2.045 -1.223,4.332 -1.868,6.464 -2.633,0 -5.267,0 -7.9,0 2.469,-8.411 4.992,-16.777 7.613,-25.137 0.875,-2.793 1.604,-5.595 2.585,-8.33 -0.006,-0.246 0.108,-0.373 0.287,-0.431 z m 4.597,7.612 c -1.108,4.29 -2.408,8.87 -3.591,13.214 0.248,0.017 7.252,-0.011 7.613,0 -1.209,-4.584 -2.405,-9.182 -3.734,-13.645 -0.137,0.055 -0.252,0.292 -0.288,0.431 z"
         clip-rule="evenodd"
         inkscape:connector-curvature="0"
         style="fill:#669eb2;fill-rule:evenodd" />
      <path
         id="path4293"
         d="m 52.106,48.081 c -4.404,0 -8.81,0 -13.214,0 -0.046,0.785 10e-4,1.413 0.143,2.011 0.078,0.327 0.137,0.38 0.288,0.719 0.378,0.85 1.334,1.22 1.58,1.293 1.17,0.348 2.327,0.274 3.878,0.143 1.54,-0.13 2.985,-0.281 4.31,-0.573 0.67,-0.148 1.269,-0.262 1.724,-0.288 0.409,1.746 0.792,3.819 1.005,5.458 -2.319,0.753 -5.157,1.387 -8.044,1.58 -2.311,0.155 -4.604,-0.108 -6.474,-0.782 -0.339,-0.123 -0.705,-0.233 -0.995,-0.366 -0.461,-0.213 -1.045,-0.625 -1.58,-1.006 -0.051,-0.035 -0.958,-0.9 -1.437,-1.58 -0.478,-0.679 -1.341,-2.226 -1.58,-3.447 -0.277,-1.419 -0.144,-3.241 -0.144,-5.026 0,-1.826 -0.143,-3.713 0,-5.315 0.122,-1.36 0.569,-2.667 1.149,-3.734 0.409,-0.75 0.815,-1.528 1.293,-2.011 0.119,-0.12 0.743,-0.636 0.862,-0.719 0.991,-0.685 2.47,-1.187 3.878,-1.579 1.619,-0.453 4.427,-0.344 6.32,0 0.63,0.113 1.172,0.233 1.724,0.431 0.487,0.174 1.005,0.376 1.38,0.585 0.249,0.139 0.649,0.389 0.692,0.415 1.91,1.177 3.045,4.06 3.241,6.612 0.164,2.112 0.054,4.612 0.001,7.179 z m -7.899,-9.192 c -1.293,-0.839 -4.038,-0.404 -4.74,0.431 -0.045,0.055 -0.251,0.379 -0.287,0.432 -0.425,0.618 -0.309,2.247 -0.287,2.729 2.106,0 4.213,0 6.32,0 0.089,-1.788 -0.127,-3.022 -1.006,-3.592 z"
         clip-rule="evenodd"
         inkscape:connector-curvature="0"
         style="fill:#669eb2;fill-rule:evenodd" />
      <path
         id="path4295"
         d="m 69.883,39.319 c -0.052,0.324 -0.172,0.325 -0.717,0.575 -0.729,0.333 -1.772,0.608 -2.586,1.005 -1.137,0.554 -2.406,1.209 -3.16,1.724 0,5.075 0,10.15 0,15.226 0.006,0.013 -7.468,0.013 -7.496,-0.015 0,-8.188 0.026,-16.504 0.026,-24.69 1.479,-0.018 4.695,-0.003 6.177,0 0.137,0.772 0.248,1.379 0.431,2.298 2.021,-1.138 4.165,-2.154 6.607,-2.873 0.507,1.983 0.685,5.137 0.718,6.75 z"
         clip-rule="evenodd"
         inkscape:connector-curvature="0"
         style="fill:#669eb2;fill-rule:evenodd" />
      <path
         id="path4297"
         d="m 140.987,23.759 -1.225,-6.197 c -0.098,-0.483 -0.426,-0.872 -0.813,-0.952 l -3.601,-0.736 c 0.837,1.703 1.471,3.54 1.845,5.494 0.37,1.913 0.464,3.814 0.332,5.67 l 3.072,-2.086 c 0.327,-0.223 0.484,-0.707 0.39,-1.193 z"
         inkscape:connector-curvature="0"
         style="fill:#e25027" />
      <path
         id="path4299"
         d="M 137.259,21.043 C 134.812,9.199 123.227,1.581 111.382,4.028 99.538,6.476 91.92,18.062 94.368,29.905 c 2.145,10.38 11.308,17.513 21.512,17.471 -7.243,-1.189 -13.351,-6.706 -14.925,-14.322 -2.041,-9.877 4.311,-19.537 14.187,-21.578 9.876,-2.04 19.536,4.312 21.576,14.188 0.366,1.769 0.458,3.529 0.313,5.242 0.803,-3.131 0.926,-6.485 0.228,-9.863 z"
         clip-rule="evenodd"
         inkscape:connector-curvature="0"
         style="fill:#e25027;fill-rule:evenodd" />
      <path
         id="path4301"
         d="m 94.082,23.546 -3.654,2.416 c -0.332,0.22 -0.491,0.7 -0.4,1.187 l 1.177,6.207 c 0.092,0.486 0.42,0.878 0.808,0.964 l 4.296,0.93 c -0.875,-1.746 -1.535,-3.636 -1.921,-5.647 -0.395,-2.047 -0.482,-4.08 -0.306,-6.057 z"
         inkscape:connector-curvature="0"
         style="fill:#e25027" />
      <path
         id="path4303"
         d="m 117.357,3.75 -2.243,-3.33 c -0.222,-0.329 -0.707,-0.487 -1.193,-0.394 l -6.2,1.203 c -0.487,0.095 -0.875,0.422 -0.957,0.811 l -0.832,4.006 c 1.772,-0.897 3.694,-1.571 5.742,-1.967 1.918,-0.368 3.823,-0.463 5.683,-0.329 z"
         inkscape:connector-curvature="0"
         style="fill:#e25027" />
      <path
         id="path4305"
         d="M 101.647,8.907 97.542,8.104 C 97.152,8.03 96.697,8.261 96.42,8.67 l -3.533,5.236 c -0.278,0.412 -0.321,0.919 -0.104,1.248 l 2.31,3.524 c 1.25,-3.79 3.52,-7.177 6.554,-9.771 z"
         inkscape:connector-curvature="0"
         style="fill:#e25027" />
      <path
         id="path4307"
         d="m 98.999,39.366 -0.852,4.244 c -0.078,0.389 0.151,0.842 0.563,1.12 l 5.23,3.54 c 0.411,0.277 0.918,0.319 1.25,0.104 l 3.522,-2.282 c -3.787,-1.305 -7.153,-3.636 -9.713,-6.726 z"
         inkscape:connector-curvature="0"
         style="fill:#e25027" />
      <path
         id="path4309"
         d="m 132.173,11.13 0.74,-3.685 c 0.079,-0.386 -0.151,-0.842 -0.562,-1.119 l -5.231,-3.54 c -0.41,-0.275 -0.918,-0.319 -1.25,-0.105 l -3.261,2.114 c 3.694,1.221 7,3.412 9.564,6.335 z"
         inkscape:connector-curvature="0"
         style="fill:#e25027" />
      <path
         id="path4311"
         d="m 129.951,30.15 c 0.049,-4.278 -3.481,-6.746 -6.801,-7.63 -0.962,-0.256 -1.936,-0.365 -2.894,-0.326 -4.049,0.166 -7.377,2.949 -8.479,7.092 -0.686,2.576 -0.396,5.179 0.816,7.328 1.199,2.127 3.21,3.656 5.66,4.309 1.027,0.273 2.062,0.392 3.075,0.35 1.575,-0.064 3.735,-0.552 5.584,-2.394 l -9.13,-2.43 c -0.403,-0.106 -0.643,-0.521 -0.536,-0.923 l 1.045,-3.926 c 0.107,-0.402 0.52,-0.642 0.923,-0.535 l 14.801,3.938 c 0.33,-1.237 0.487,-2.533 0.455,-3.854 l -3.812,-0.236 c -0.4,-0.025 -0.712,-0.36 -0.707,-0.763 z"
         inkscape:connector-curvature="0"
         style="fill:#eb8467" />
      <path
         id="path4313"
         d="m 97.944,47.386 -2.309,-1.572 c -0.002,-0.032 -0.003,-0.066 -0.006,-0.1 -0.076,-0.783 -0.226,-1.553 -0.44,-2.296 -0.009,-0.031 -0.021,-0.063 -0.03,-0.095 l 1.574,-2.368 c 0.131,-0.196 0.109,-0.5 -0.052,-0.746 l -2.052,-3.144 c -0.161,-0.246 -0.428,-0.387 -0.658,-0.343 l -2.78,0.525 C 91.165,37.226 91.142,37.202 91.116,37.182 90.542,36.706 89.925,36.278 89.266,35.908 89.238,35.892 89.207,35.88 89.18,35.864 L 88.616,33.03 C 88.569,32.798 88.341,32.6 88.054,32.542 L 84.396,31.798 C 84.11,31.74 83.823,31.832 83.69,32.027 l -1.579,2.343 c -0.032,0.002 -0.065,0.003 -0.098,0.006 -0.783,0.073 -1.551,0.223 -2.296,0.438 -0.033,0.01 -0.064,0.022 -0.098,0.032 l -2.342,-1.564 c -0.195,-0.13 -0.496,-0.106 -0.74,0.057 l -3.118,2.089 c -0.245,0.164 -0.384,0.434 -0.34,0.666 l 0.507,2.719 c -0.021,0.024 -0.045,0.047 -0.066,0.073 -0.512,0.616 -0.97,1.286 -1.362,2.002 -0.016,0.029 -0.029,0.06 -0.045,0.089 l -2.774,0.549 c -0.23,0.046 -0.428,0.275 -0.488,0.564 l -0.769,3.695 c -0.06,0.289 0.031,0.579 0.223,0.715 l 2.321,1.623 c 0.002,0.033 0.003,0.066 0.006,0.1 0.073,0.804 0.224,1.591 0.444,2.353 0.009,0.033 0.021,0.064 0.031,0.097 l -1.565,2.354 c -0.13,0.196 -0.109,0.499 0.052,0.746 l 2.052,3.143 c 0.16,0.246 0.428,0.387 0.659,0.344 l 2.754,-0.521 c 0.026,0.021 0.049,0.045 0.075,0.067 0.619,0.514 1.289,0.973 2.007,1.364 0.029,0.017 0.06,0.028 0.088,0.044 l 0.532,2.752 c 0.045,0.231 0.273,0.43 0.561,0.486 l 3.656,0.75 c 0.287,0.059 0.574,-0.035 0.708,-0.229 l 1.604,-2.351 c 0.032,-0.004 0.068,-0.004 0.1,-0.007 0.528,-0.056 1.048,-0.147 1.559,-0.27 -0.746,0.078 -1.51,0.077 -2.286,-0.033 -5.104,-0.724 -8.655,-5.45 -7.93,-10.554 0.725,-5.105 5.45,-8.657 10.556,-7.932 5.104,0.725 8.654,5.45 7.93,10.556 -0.167,1.174 -0.552,2.259 -1.098,3.234 0.375,-0.498 0.725,-1.019 1.026,-1.576 0.016,-0.029 0.029,-0.062 0.045,-0.092 l 2.755,-0.578 c 0.229,-0.05 0.426,-0.281 0.483,-0.571 l 0.739,-3.7 c 0.061,-0.292 -0.031,-0.58 -0.225,-0.713 z"
         inkscape:connector-curvature="0"
         style="fill:#669eb2" />
    </g>
    <path
       style="fill:#87b3c3;fill-opacity:1;stroke:none"
       d="m 444.58644,749.52817 -209.90792,10e-6 0,-16.49413 -29.82488,28.33197 29.82488,27.41803 0,-14.94028 210.33934,-10e-6"
       id="path3976"
       inkscape:connector-curvature="0"
       sodipodi:nodetypes="ccccccc" />
    <path
       style="fill:#5390a6;fill-opacity:1;stroke:none"
       d="m 438,725.48718 0,70.84375 111.21875,0 0,-70.84375 z"
       id="rect4406"
       inkscape:connector-curvature="0"
       sodipodi:nodetypes="ccccc" />
    <path
       inkscape:connector-curvature="0"
       id="path4413"
       d="m 438,646.83093 0,71.3125 111.21875,0 0,-71.3125 z"
       style="fill:#5390a6;fill-opacity:1;stroke:none"
       sodipodi:nodetypes="ccccc" />
    <flowRoot
       transform="matrix(0.37514515,0,0,0.37507197,370.4387,609.55638)"
       style="font-size:37.32252884px;font-style:normal;font-variant:normal;font-weight:bold;font-stretch:normal;text-align:center;line-height:125%;letter-spacing:0px;word-spacing:0px;text-anchor:middle;fill:#ffffff;fill-opacity:1;stroke:none;font-family:Open Sans;-inkscape-font-specification:Open Sans Bold"
       id="flowRoot3831"
       xml:space="preserve"><flowRegion
         id="flowRegion3833"><rect
           style="font-size:37.32252884px;font-style:normal;font-variant:normal;font-weight:bold;font-stretch:normal;text-align:center;text-anchor:middle;fill:#ffffff;fill-opacity:1;font-family:Open Sans;-inkscape-font-specification:Open Sans Bold"
           y="151.36218"
           x="76"
           height="115.44444"
           width="504.22223"
           id="rect3835" /></flowRegion><flowPara
         id="flowPara3839"
         style="font-size:31.99073982px;font-weight:bold;fill:#ffffff;fill-opacity:1;-inkscape-font-specification:Open Sans Bold">Application</flowPara><flowPara
         id="flowPara3930"
         style="font-size:31.99073982px;font-weight:bold;fill:#ffffff;fill-opacity:1;-inkscape-font-specification:Open Sans Bold">Registration</flowPara></flowRoot>    <flowRoot
       xml:space="preserve"
       id="flowRoot3809"
       style="font-size:31.99073982px;font-style:normal;font-variant:normal;font-weight:bold;font-stretch:normal;text-align:center;line-height:125%;letter-spacing:0px;word-spacing:0px;text-anchor:middle;fill:#ffffff;fill-opacity:1;stroke:none;font-family:Open Sans;-inkscape-font-specification:Open Sans Bold"
       transform="matrix(0.37514515,0,0,0.37507197,370.79029,696.86021)"><flowRegion
         id="flowRegion3811"><rect
           id="rect3813"
           width="504.22223"
           height="115.44444"
           x="76"
           y="151.36218"
           style="font-size:31.99073982px;font-style:normal;font-variant:normal;font-weight:bold;font-stretch:normal;text-align:center;text-anchor:middle;fill:#ffffff;fill-opacity:1;font-family:Open Sans;-inkscape-font-specification:Open Sans Bold" /></flowRegion><flowPara
         id="flowPara3815">Sender API</flowPara><flowPara
         id="flowPara3817" /></flowRoot>    <path
       sodipodi:nodetypes="ccccccc"
       inkscape:connector-curvature="0"
       id="path3974"
       d="m 208.28506,671.10629 209.78292,2e-5 0,-16.49413 29.94988,28.33197 -29.94988,27.41803 0,-14.94028 -210.21434,-1e-5"
       style="fill:url(#linearGradient4386);fill-opacity:1;stroke:none" />
    <path
       sodipodi:nodetypes="ccccccc"
       inkscape:connector-curvature="0"
       id="path4000"
       d="m 504.99025,930.18077 0,-113.59856 16.49412,0 -28.33197,-29.82488 -27.41803,29.82488 14.94028,0 0,114.02997"
       style="fill:#87b3c3;fill-opacity:1;stroke:none" />
    <rect
       y="918.29529"
       x="414.33591"
       height="24.855036"
       width="374.43527"
       id="rect3990"
       style="fill:#d6e4ea;fill-opacity:1;stroke:none"
       rx="10.5"
       ry="10.5" />
    <path
       style="fill:url(#linearGradient4378);fill-opacity:1;stroke:none"
       d="m 504.99025,576.87938 0,49.90792 16.49412,0 -28.33197,29.82488 -27.41803,-29.82488 14.94028,0 0,-50.33933"
       id="path3909"
       inkscape:connector-curvature="0"
       sodipodi:nodetypes="ccccccc" />
    <path
       style="fill:none;stroke:#d6e4ea;stroke-width:2;stroke-linecap:butt;stroke-linejoin:miter;stroke-miterlimit:4;stroke-opacity:1;stroke-dasharray:none"
       d="m 668.52954,679.13804 16.97056,12.71145 -17.4125,12.66726"
       id="path4462"
       inkscape:connector-curvature="0"
       sodipodi:nodetypes="ccc" />
    <path
       style="fill:none;stroke:#d6e4ea;stroke-width:2;stroke-linecap:butt;stroke-linejoin:miter;stroke-miterlimit:4;stroke-opacity:1;stroke-dasharray:none"
       d="m 669.09884,738.36084 16.97056,12.71145 -17.4125,12.66726"
       id="path4466"
       inkscape:connector-curvature="0"
       sodipodi:nodetypes="ccc" />
    <path
       sodipodi:nodetypes="ccc"
       inkscape:connector-curvature="0"
       id="path4468"
       d="m 478.16588,641.78465 14.96146,16.40806 15.72977,-16.6"
       style="fill:none;stroke:#d6e4ea;stroke-width:2;stroke-linecap:butt;stroke-linejoin:miter;stroke-miterlimit:4;stroke-opacity:1;stroke-dasharray:none" />
    <path
       style="fill:none;stroke:#d6e4ea;stroke-width:2;stroke-linecap:butt;stroke-linejoin:miter;stroke-miterlimit:4;stroke-opacity:1;stroke-dasharray:none"
       d="m 478.16588,801.63183 14.96146,-16.40806 15.72977,16.6"
       id="path4470"
       inkscape:connector-curvature="0"
       sodipodi:nodetypes="ccc" />
    <path
       style="fill:none;stroke:#d6e4ea;stroke-width:2;stroke-linecap:butt;stroke-linejoin:miter;stroke-miterlimit:4;stroke-opacity:1;stroke-dasharray:none"
       d="m 433.11358,697.91933 16.40806,-14.96146 -16.6,-15.72977"
       id="path4472"
       inkscape:connector-curvature="0"
       sodipodi:nodetypes="ccc" />
    <path
       sodipodi:nodetypes="cc"
       inkscape:connector-curvature="0"
       id="path4476"
       d="m 477.03731,917.29206 30.69126,-10e-6"
       style="fill:#16262c;fill-opacity:1;stroke:#ffffff;stroke-width:2;stroke-linecap:butt;stroke-linejoin:miter;stroke-miterlimit:4;stroke-opacity:1;stroke-dasharray:none" />
    <path
       style="fill:#d6e4ea;fill-opacity:1;stroke:#d6e4ea;stroke-width:2;stroke-linecap:butt;stroke-linejoin:miter;stroke-miterlimit:4;stroke-opacity:1;stroke-dasharray:none"
       d="m 436.99889,777.24872 0,-30.69123"
       id="path4478"
       inkscape:connector-curvature="0"
       sodipodi:nodetypes="cc" />
    <path
       sodipodi:nodetypes="ccccccc"
       inkscape:connector-curvature="0"
       id="path4593"
       d="m 549.25032,746.48112 118.35586,0 0,-7.99407 16.82488,12.57832 -16.82488,12.30162 0,-7.52361 -118.35586,-10e-6"
       style="fill:#87b3c3;fill-opacity:1;stroke:none" />
    <path
       sodipodi:nodetypes="cc"
       inkscape:connector-curvature="0"
       id="path4595"
       d="m 550.28958,761.99872 0,-30.69123"
       style="fill:#d6e4ea;fill-opacity:1;stroke:#d6e4ea;stroke-width:2;stroke-linecap:butt;stroke-linejoin:miter;stroke-miterlimit:4;stroke-opacity:1;stroke-dasharray:none" />
    <path
       style="fill:#d6e4ea;fill-opacity:1;stroke:#d6e4ea;stroke-width:2;stroke-linecap:butt;stroke-linejoin:miter;stroke-miterlimit:4;stroke-opacity:1;stroke-dasharray:none"
       d="m 550.21605,706.30213 0,-30.69123"
       id="path4597"
       inkscape:connector-curvature="0"
       sodipodi:nodetypes="cc" />
    <flowRoot
       transform="matrix(0.37514515,0,0,0.37507197,539.60236,708.30117)"
       style="font-size:26.65894889999999862px;font-style:normal;font-variant:normal;font-weight:normal;font-stretch:normal;text-align:start;line-height:125%;letter-spacing:0px;word-spacing:0px;text-anchor:start;opacity:0.66000000000000003;fill:#335866;fill-opacity:1;stroke:none;font-family:Open Sans;-inkscape-font-specification:Open Sans"
       id="flowRoot3958"
       xml:space="preserve"><flowRegion
         id="flowRegion3960"><rect
           style="font-size:26.65894889999999862px;font-style:normal;font-variant:normal;font-weight:normal;font-stretch:normal;text-align:start;text-anchor:start;fill:#335866;fill-opacity:1;font-family:Open Sans;-inkscape-font-specification:Open Sans"
           y="151.36218"
           x="76"
           height="150.10448"
           width="242.99001"
           id="rect3962" /></flowRegion><flowPara
         id="flowPara3964"
         style="font-size:26.65894889999999862px;text-align:start;text-anchor:start;fill:#335866;fill-opacity:1">queries details for receiving apps...</flowPara></flowRoot>  </g>
</svg>
