<?xml version="1.0" encoding="UTF-8" standalone="no"?>
<!-- Created with Inkscape (http://www.inkscape.org/) -->

<svg
   xmlns:dc="http://purl.org/dc/elements/1.1/"
   xmlns:cc="http://creativecommons.org/ns#"
   xmlns:rdf="http://www.w3.org/1999/02/22-rdf-syntax-ns#"
   xmlns:svg="http://www.w3.org/2000/svg"
   xmlns="http://www.w3.org/2000/svg"
   xmlns:sodipodi="http://sodipodi.sourceforge.net/DTD/sodipodi-0.dtd"
   xmlns:inkscape="http://www.inkscape.org/namespaces/inkscape"
   width="500"
   height="200"
   id="svg10389"
   version="1.1"
   inkscape:version="0.48.2 r9819"
   sodipodi:docname="aerogear-platforms.svg">
  <defs
     id="defs10391" />
  <sodipodi:namedview
     id="base"
     pagecolor="#ffffff"
     bordercolor="#666666"
     borderopacity="1.0"
     inkscape:pageopacity="0.0"
     inkscape:pageshadow="2"
     inkscape:zoom="1.4142136"
     inkscape:cx="271.30002"
     inkscape:cy="94.907488"
     inkscape:document-units="px"
     inkscape:current-layer="layer1"
     showgrid="false"
     inkscape:window-width="1366"
     inkscape:window-height="720"
     inkscape:window-x="0"
     inkscape:window-y="0"
     inkscape:window-maximized="1"
     fit-margin-top="0"
     fit-margin-left="0"
     fit-margin-right="0"
     fit-margin-bottom="0" />
  <metadata
     id="metadata10394">
    <rdf:RDF>
      <cc:Work
         rdf:about="">
        <dc:format>image/svg+xml</dc:format>
        <dc:type
           rdf:resource="http://purl.org/dc/dcmitype/StillImage" />
        <dc:title />
      </cc:Work>
    </rdf:RDF>
  </metadata>
  <g
     inkscape:label="Layer 1"
     inkscape:groupmode="layer"
     id="layer1"
     transform="translate(236.08454,-992.13227)">
    <g
       id="g21738"
       transform="translate(35.8344,-28.721918)">
      <rect
         style="opacity:0;color:#000000;fill:#3f95f1;fill-opacity:1;fill-rule:nonzero;stroke:none;stroke-width:1;marker:none;visibility:visible;display:inline;overflow:visible;enable-background:accumulate"
         id="rect20570"
         width="128"
         height="128"
         x="-28.084539"
         y="1049.576" />
      <path
         sodipodi:nodetypes="czcc"
         inkscape:connector-curvature="0"
         id="path20626"
         d="m -221.08454,1107.5761 c 58.65685,36.6716 107.44275,13.675 129.021431,3.1716 21.57868,-10.5035 69.0746,-20.7574 127.58683,-20.7574 83.580019,0 117.800039,29.5858 117.800039,29.5858"
         style="fill:none;stroke:#e17205;stroke-width:2;stroke-linecap:butt;stroke-linejoin:miter;stroke-miterlimit:4;stroke-opacity:1;stroke-dasharray:6, 6;stroke-dashoffset:0" />
      <g
         transform="matrix(0.95743565,0,0,0.95425079,-483.71865,871.14863)"
         id="g20628">
        <g
           id="g11704"
           transform="matrix(0.92840588,0,0,0.92840588,54.16169,116.85268)">
          <rect
             transform="matrix(0,1,-1,0,0,0)"
             ry="5.0625"
             rx="5.0793962"
             y="-571.25"
             x="98.112167"
             height="90"
             width="66"
             id="rect11648"
             style="color:#000000;fill:#323232;fill-opacity:1;fill-rule:nonzero;stroke:none;stroke-width:1.99999988;marker:none;visibility:visible;display:inline;overflow:visible;enable-background:accumulate" />
          <path
             sodipodi:nodetypes="sccccccss"
             inkscape:connector-curvature="0"
             id="rect11650"
             d="m 518.39085,160.19368 c -2.52811,0 -4.56338,1.86198 -4.56338,4.17485 0,6.40174 -5.44009,5.34795 -5.57747,9.50937 l 0,3.2471 36,0 0,-3.2471 c 0,-4.91388 -5.57747,-2.74277 -5.57747,-9.50937 0,-2.31287 -2.03525,-4.17485 -4.56338,-4.17485 z"
             style="color:#000000;fill:#323232;fill-opacity:1;fill-rule:nonzero;stroke:none;stroke-width:1.99999988;marker:none;visibility:visible;display:inline;overflow:visible;enable-background:accumulate" />
        </g>
      </g>
      <g
         transform="translate(-508.08454,858.21393)"
         id="g20620">
        <rect
           style="color:#000000;fill:#323232;fill-opacity:1;fill-rule:nonzero;stroke:none;stroke-width:1.99999988;marker:none;visibility:visible;display:inline;overflow:visible;enable-background:accumulate"
           id="rect11106"
           width="32"
           height="51"
           x="272"
           y="230.36218"
           rx="4.5"
           ry="4.5" />
        <path
           sodipodi:type="arc"
           style="color:#000000;fill:#ffffff;fill-opacity:1;fill-rule:nonzero;stroke:none;stroke-width:1.99999988;marker:none;visibility:visible;display:inline;overflow:visible;enable-background:accumulate"
           id="path11655"
           sodipodi:cx="299"
           sodipodi:cy="156.36218"
           sodipodi:rx="5"
           sodipodi:ry="5"
           d="m 304,156.36218 c 0,2.76143 -2.23858,5 -5,5 -2.76142,0 -5,-2.23857 -5,-5 0,-2.76142 2.23858,-5 5,-5 2.76142,0 5,2.23858 5,5 z"
           transform="matrix(0.40000008,0,0,0.40000005,168.39998,211.8173)" />
      </g>
      <path
         inkscape:connector-curvature="0"
         id="path20633"
         d="m 147.93898,1088.736 -10.6066,17.3242 6.71751,24.7487 38.53732,-2.1213 4.24264,-26.5165 -9.54594,-14.1422 z"
         style="fill:#ffffff;fill-opacity:1;stroke:none" />
      <path
         inkscape:connector-curvature="0"
         id="path11692"
         d="m 173.93896,1083.2263 c -9.02845,0.017 -27.48366,0.1549 -27.48366,0.1549 l -13.57219,21.7154 5.31085,34.6976 9.55954,0.118 -0.35406,-8.0252 4.48473,-0.1181 0.94415,8.0253 19.59115,0.118 0.70811,-8.0252 4.9568,-0.1181 -0.59009,8.2614 9.32349,0 5.42888,-35.4057 c 0,0 -13.92624,-21.2434 -13.45417,-21.3615 0.11803,-0.029 -1.84404,-0.042 -4.85353,-0.037 z m -16.15384,10.5405 -0.35406,4.4847 10.50369,-0.118 -0.70812,-4.1306 8.85143,0 5.42887,10.7397 -2.59641,21.8335 -32.69127,0.118 -2.71443,-21.4794 5.54689,-11.2118 8.73341,-0.2361 z m -3.47419,16.0727 c -0.78352,0 -1.41623,2.2569 -1.41623,5.0453 0,2.7885 0.63271,5.0527 1.41623,5.0527 0.78352,0 1.4236,-2.2642 1.4236,-5.0527 0,-2.7884 -0.64008,-5.0453 -1.4236,-5.0453 z m 17.02424,0 c -0.78352,0 -1.41623,2.2569 -1.41623,5.0453 0,2.7885 0.63271,5.0527 1.41623,5.0527 0.78352,0 1.4236,-2.2642 1.4236,-5.0527 0,-2.7884 -0.64008,-5.0453 -1.4236,-5.0453 z"
         style="fill:#323232;fill-opacity:1;stroke:none" />
      <g
         transform="matrix(0.39233302,0,0,0.39210579,-319.22562,1137.7002)"
         style="font-size:40px;font-style:normal;font-variant:normal;font-weight:bold;font-stretch:normal;text-align:start;line-height:125%;letter-spacing:0px;word-spacing:0px;text-anchor:start;opacity:0.66000001;fill:#000000;fill-opacity:1;stroke:none;font-family:Lato;-inkscape-font-specification:Lato Bold"
         id="flowRoot4106-1">
        <path
           d="m 227.9,67.98 0,20.52 -4.94,0 0,-20.52 4.94,0 M 228.64,62 c -10e-6,0.426693 -0.0867,0.826692 -0.26,1.2 -0.17334,0.373358 -0.40667,0.700025 -0.7,0.98 -0.28001,0.280024 -0.61334,0.50669 -1,0.68 -0.38667,0.160023 -0.80001,0.240023 -1.24,0.24 -0.42667,2.3e-5 -0.83334,-0.07998 -1.22,-0.24 -0.37334,-0.17331 -0.7,-0.399976 -0.98,-0.68 -0.28,-0.279975 -0.50667,-0.606642 -0.68,-0.98 -0.16,-0.373308 -0.24,-0.773307 -0.24,-1.2 0,-0.439973 0.08,-0.853306 0.24,-1.24 0.17333,-0.386639 0.4,-0.719972 0.68,-1 0.28,-0.279971 0.60666,-0.499971 0.98,-0.66 0.38666,-0.173304 0.79333,-0.25997 1.22,-0.26 0.43999,3e-5 0.85333,0.0867 1.24,0.26 0.38666,0.160029 0.71999,0.380029 1,0.66 0.29333,0.280028 0.52666,0.613361 0.7,1 0.17332,0.386694 0.25999,0.800027 0.26,1.24"
           id="path21834"
           inkscape:connector-curvature="0" />
        <path
           d="m 261.51938,74.04 c -4e-5,2.120012 -0.35337,4.086677 -1.06,5.9 -0.7067,1.800007 -1.70003,3.360005 -2.98001,4.68 -1.28002,1.320003 -2.82002,2.353335 -4.62,3.1 -1.80002,0.733333 -3.79335,1.1 -5.98,1.1 -2.18668,0 -4.18667,-0.366667 -6,-1.1 -1.8,-0.746665 -3.34667,-1.779997 -4.64,-3.1 -1.28,-1.319995 -2.27333,-2.879993 -2.98,-4.68 -0.70666,-1.813323 -1.06,-3.779988 -1.06,-5.9 0,-2.119983 0.35334,-4.079981 1.06,-5.88 0.70667,-1.813311 1.7,-3.379976 2.98,-4.7 1.29333,-1.319974 2.84,-2.346639 4.64,-3.08 1.81333,-0.746638 3.81332,-1.119971 6,-1.12 2.18665,2.9e-5 4.17998,0.373362 5.98,1.12 1.79998,0.746694 3.33998,1.780026 4.62,3.1 1.27998,1.30669 2.27331,2.866689 2.98001,4.68 0.70663,1.800019 1.05996,3.760017 1.06,5.88 m -5.52001,0 c -2e-5,-1.586651 -0.21335,-3.006649 -0.64,-4.26 -0.41335,-1.266647 -1.01335,-2.339979 -1.8,-3.22 -0.78668,-0.879977 -1.74668,-1.55331 -2.88,-2.02 -1.12001,-0.466642 -2.38668,-0.699975 -3.8,-0.7 -1.41334,2.5e-5 -2.68667,0.233358 -3.82,0.7 -1.13334,0.46669 -2.10001,1.140023 -2.9,2.02 -0.78667,0.880021 -1.39334,1.953353 -1.82,3.22 -0.42667,1.253351 -0.64,2.673349 -0.64,4.26 0,1.58668 0.21333,3.013345 0.64,4.28 0.42666,1.253342 1.03333,2.320008 1.82,3.2 0.79999,0.866673 1.76666,1.533339 2.9,2 1.13333,0.466671 2.40666,0.700004 3.82,0.7 1.41332,4e-6 2.67999,-0.233329 3.8,-0.7 1.13332,-0.466661 2.09332,-1.133327 2.88,-2 0.78665,-0.879992 1.38665,-1.946658 1.8,-3.2 0.42665,-1.266655 0.63998,-2.69332 0.64,-4.28"
           id="path21836"
           inkscape:connector-curvature="0" />
        <path
           d="m 281.2325,64.84 c -0.14668,0.293357 -0.32002,0.500023 -0.52,0.62 -0.18668,0.120023 -0.41335,0.180023 -0.68,0.18 -0.26668,2.3e-5 -0.56668,-0.09998 -0.9,-0.3 -0.33335,-0.21331 -0.72668,-0.446643 -1.18,-0.7 -0.45335,-0.253309 -0.98668,-0.479976 -1.6,-0.68 -0.60001,-0.213309 -1.31335,-0.319975 -2.14,-0.32 -0.74668,2.5e-5 -1.40001,0.09336 -1.96,0.28 -0.54668,0.173358 -1.01334,0.420024 -1.4,0.74 -0.37334,0.320024 -0.65334,0.70669 -0.84,1.16 -0.18667,0.440022 -0.28001,0.926688 -0.28,1.46 -1e-5,0.680021 0.18666,1.246687 0.56,1.7 0.38666,0.453352 0.89332,0.840019 1.52,1.16 0.62666,0.320018 1.33999,0.606684 2.14,0.86 0.79999,0.253351 1.61332,0.526684 2.44,0.82 0.83999,0.280016 1.65998,0.613349 2.46,1 0.79998,0.373349 1.51332,0.853348 2.14,1.44 0.62665,0.573347 1.12665,1.280013 1.5,2.12 0.38665,0.840011 0.57998,1.86001 0.58,3.06 -2e-5,1.306674 -0.22669,2.53334 -0.68,3.68 -0.44002,1.133338 -1.09335,2.12667 -1.96,2.98 -0.85335,0.840002 -1.90002,1.506668 -3.14,2 -1.24001,0.48 -2.66001,0.72 -4.26,0.72 -0.92001,0 -1.82668,-0.09333 -2.72,-0.28 -0.89334,-0.173333 -1.75334,-0.426666 -2.58,-0.76 -0.81334,-0.333332 -1.58,-0.733332 -2.3,-1.2 -0.70667,-0.466664 -1.34,-0.986664 -1.9,-1.56 l 1.56,-2.58 c 0.14666,-0.18666 0.32,-0.339994 0.52,-0.46 0.21333,-0.133327 0.44666,-0.199993 0.7,-0.2 0.33333,7e-6 0.69333,0.140007 1.08,0.42 0.38666,0.266673 0.83999,0.566672 1.36,0.9 0.53333,0.333338 1.15333,0.640005 1.86,0.92 0.71999,0.266671 1.57999,0.400004 2.58,0.4 1.53332,4e-6 2.71999,-0.359996 3.56,-1.08 0.83999,-0.733327 1.25998,-1.779993 1.26,-3.14 -2e-5,-0.759991 -0.19335,-1.37999 -0.58,-1.86 -0.37335,-0.479989 -0.87335,-0.879989 -1.5,-1.2 -0.62668,-0.333322 -1.34001,-0.613321 -2.14,-0.84 -0.80001,-0.226654 -1.61334,-0.473321 -2.44,-0.74 -0.82667,-0.266653 -1.64001,-0.586653 -2.44,-0.96 -0.80001,-0.373319 -1.51334,-0.859985 -2.14,-1.46 -0.62667,-0.599984 -1.13334,-1.34665 -1.52,-2.24 -0.37334,-0.906648 -0.56,-2.01998 -0.56,-3.34 0,-1.053311 0.20666,-2.079977 0.62,-3.08 0.42666,-0.999975 1.04,-1.886641 1.84,-2.66 0.81333,-0.773306 1.80666,-1.393305 2.98,-1.86 1.17332,-0.466638 2.51332,-0.699971 4.02,-0.7 1.70665,2.9e-5 3.27999,0.266696 4.72,0.8 1.43998,0.533361 2.66665,1.280027 3.68,2.24 l -1.32,2.54"
           id="path21838"
           inkscape:connector-curvature="0" />
      </g>
      <g
         transform="matrix(0.39233302,0,0,0.39210579,-206.49547,1137.7002)"
         style="font-size:40px;font-style:normal;font-variant:normal;font-weight:bold;font-stretch:normal;text-align:start;line-height:125%;letter-spacing:0px;word-spacing:0px;text-anchor:start;opacity:0.66000001;fill:#000000;fill-opacity:1;stroke:none;font-family:Lato;-inkscape-font-specification:Lato Bold"
         id="flowRoot11741">
        <path
           d="m 248.34,88.5 -4.16,0 c -0.46669,0 -0.85336,-0.113333 -1.16,-0.34 -0.29336,-0.239999 -0.50669,-0.533332 -0.64,-0.88 l -2.16,-5.9 -11.98,0 -2.16,5.9 c -0.10667,0.306668 -0.32001,0.586667 -0.64,0.84 -0.30667,0.253333 -0.68667,0.38 -1.14,0.38 l -4.18,0 11.36,-28.92 5.5,0 11.36,28.92 m -18.72,-10.92 9.22,0 -3.52,-9.62 c -0.16002,-0.426646 -0.34001,-0.926645 -0.54,-1.5 -0.18668,-0.586644 -0.37335,-1.219977 -0.56,-1.9 -0.18668,0.680023 -0.37335,1.313356 -0.56,1.9 -0.17335,0.586688 -0.34668,1.100021 -0.52,1.54 l -3.52,9.58"
           id="path21819"
           inkscape:connector-curvature="0" />
        <path
           d="m 251.0775,88.5 0,-20.52 3.02,0 c 0.63999,2.1e-5 1.05999,0.30002 1.26,0.9 l 0.34,1.62 c 0.41333,-0.426648 0.84666,-0.813315 1.3,-1.16 0.46666,-0.346647 0.95332,-0.646647 1.46,-0.9 0.51999,-0.253313 1.07332,-0.446646 1.66,-0.58 0.58665,-0.133313 1.22665,-0.199979 1.92,-0.2 1.11999,2.1e-5 2.11332,0.193354 2.98,0.58 0.86665,0.373353 1.58665,0.906686 2.16,1.6 0.58665,0.680018 1.02665,1.500017 1.32,2.46 0.30665,0.946682 0.45998,1.993348 0.46,3.14 l 0,13.06 -4.94,0 0,-13.06 c -2e-5,-1.253319 -0.29335,-2.219985 -0.88,-2.9 -0.57335,-0.693317 -1.44001,-1.039983 -2.6,-1.04 -0.85334,1.7e-5 -1.65334,0.19335 -2.4,0.58 -0.74668,0.386683 -1.45334,0.913349 -2.12,1.58 l 0,14.84 -4.94,0"
           id="path21821"
           inkscape:connector-curvature="0" />
        <path
           d="m 288.25187,88.5 c -0.64001,0 -1.06001,-0.3 -1.26,-0.9 l -0.39999,-1.98 c -0.42669,0.480002 -0.87335,0.913335 -1.34001,1.3 -0.46668,0.386668 -0.97334,0.720001 -1.52,1 -0.53334,0.28 -1.11334,0.493333 -1.74,0.64 -0.61334,0.16 -1.28,0.24 -2,0.24 -1.12,0 -2.14667,-0.233333 -3.08,-0.7 -0.93333,-0.466666 -1.74,-1.139998 -2.42,-2.02 -0.66666,-0.89333 -1.18666,-1.993329 -1.56,-3.3 -0.36,-1.30666 -0.54,-2.799991 -0.53999,-4.48 -1e-5,-1.519988 0.20666,-2.93332 0.61999,-4.24 0.41334,-1.306651 1.00667,-2.439983 1.78,-3.4 0.77333,-0.959981 1.7,-1.706647 2.78,-2.24 1.08,-0.546646 2.29333,-0.819979 3.64001,-0.82 1.14665,2.1e-5 2.12665,0.186687 2.94,0.56 0.81331,0.36002 1.53998,0.846686 2.18,1.46 l 0,-10.84 4.94,0 0,29.72 -3.02001,0 m -6.58,-3.62 c 1.02666,4e-6 1.89999,-0.21333 2.62,-0.64 0.71999,-0.426662 1.39999,-1.033328 2.04001,-1.82 l 0,-9.2 c -0.56002,-0.679984 -1.17335,-1.159984 -1.84001,-1.44 -0.65334,-0.279983 -1.36001,-0.419983 -2.12,-0.42 -0.74667,1.7e-5 -1.42667,0.140017 -2.03999,0.42 -0.60001,0.280016 -1.11335,0.706683 -1.54001,1.28 -0.41334,0.560015 -0.73334,1.280014 -0.95999,2.16 -0.22668,0.866679 -0.34001,1.893345 -0.34001,3.08 0,1.200009 0.0933,2.220008 0.28001,3.06 0.19999,0.826673 0.47999,1.506672 0.83999,2.04 0.36,0.520005 0.8,0.900004 1.32,1.14 0.52,0.22667 1.1,0.340004 1.74,0.34"
           id="path21823"
           inkscape:connector-curvature="0" />
        <path
           d="m 296.62437,88.5 0,-20.52 2.90001,0 c 0.50666,2.1e-5 0.85999,0.09335 1.06,0.28 0.19999,0.186687 0.33332,0.506686 0.39999,0.96 l 0.3,2.48 c 0.73333,-1.266649 1.59333,-2.266648 2.58,-3 0.98666,-0.733313 2.09333,-1.099979 3.32,-1.1 1.01332,2.1e-5 1.85332,0.233354 2.52001,0.7 l -0.64001,3.7 c -0.04,0.240016 -0.12668,0.413349 -0.26,0.52 -0.13334,0.09335 -0.31334,0.140016 -0.54,0.14 -0.20001,1.6e-5 -0.47334,-0.04665 -0.82,-0.14 -0.34667,-0.09332 -0.80667,-0.139984 -1.38,-0.14 -1.02667,1.6e-5 -1.90667,0.286683 -2.64,0.86 -0.73334,0.560015 -1.35334,1.386681 -1.86,2.48 l 0,12.78 -4.94,0"
           id="path21825"
           inkscape:connector-curvature="0" />
        <path
           d="m 321.7125,67.66 c 1.53332,2.1e-5 2.91999,0.246687 4.16,0.74 1.25332,0.493353 2.31998,1.193352 3.2,2.1 0.87998,0.906684 1.55998,2.013349 2.04,3.32 0.47998,1.30668 0.71998,2.766679 0.72,4.38 -2e-5,1.626675 -0.24002,3.093341 -0.72,4.4 -0.48002,1.306671 -1.16002,2.420003 -2.04,3.34 -0.88002,0.920002 -1.94668,1.626668 -3.2,2.12 -1.24001,0.493333 -2.62668,0.74 -4.16,0.74 -1.53334,0 -2.92668,-0.246667 -4.18,-0.74 -1.25334,-0.493332 -2.32667,-1.199998 -3.22,-2.12 -0.88,-0.919997 -1.56667,-2.033329 -2.06,-3.34 -0.48,-1.306659 -0.72,-2.773325 -0.72,-4.4 0,-1.613321 0.24,-3.07332 0.72,-4.38 0.49333,-1.306651 1.18,-2.413316 2.06,-3.32 0.89333,-0.906648 1.96666,-1.606647 3.22,-2.1 1.25332,-0.493313 2.64666,-0.739979 4.18,-0.74 m 0,17.34 c 1.70665,4e-6 2.96665,-0.573329 3.78,-1.72 0.82665,-1.14666 1.23998,-2.826659 1.24,-5.04 -2e-5,-2.213321 -0.41335,-3.899986 -1.24,-5.06 -0.81335,-1.159984 -2.07335,-1.739983 -3.78,-1.74 -1.73334,1.7e-5 -3.01334,0.586683 -3.84,1.76 -0.82667,1.160014 -1.24001,2.840012 -1.24,5.04 -10e-6,2.200008 0.41333,3.880006 1.24,5.04 0.82666,1.146671 2.10666,1.720004 3.84,1.72"
           id="path21827"
           inkscape:connector-curvature="0" />
        <path
           d="m 340.94687,67.98 0,20.52 -4.94,0 0,-20.52 4.94,0 m 0.74,-5.98 c 0,0.426693 -0.0867,0.826692 -0.26,1.2 -0.17334,0.373358 -0.40667,0.700025 -0.7,0.98 -0.28,0.280024 -0.61334,0.50669 -1,0.68 -0.38667,0.160023 -0.8,0.240023 -1.24,0.24 -0.42667,2.3e-5 -0.83333,-0.07998 -1.21999,-0.24 -0.37334,-0.17331 -0.70001,-0.399976 -0.98001,-0.68 -0.28,-0.279975 -0.50666,-0.606642 -0.68,-0.98 -0.16,-0.373308 -0.24,-0.773307 -0.24,-1.2 0,-0.439973 0.08,-0.853306 0.24,-1.24 0.17334,-0.386639 0.4,-0.719972 0.68,-1 0.28,-0.279971 0.60667,-0.499971 0.98001,-0.66 0.38666,-0.173304 0.79332,-0.25997 1.21999,-0.26 0.44,3e-5 0.85333,0.0867 1.24,0.26 0.38666,0.160029 0.72,0.380029 1,0.66 0.29333,0.280028 0.52666,0.613361 0.7,1 0.17333,0.386694 0.26,0.800027 0.26,1.24"
           id="path21829"
           inkscape:connector-curvature="0" />
        <path
           d="m 360.98625,88.5 c -0.64002,0 -1.06002,-0.3 -1.26,-0.9 l -0.4,-1.98 c -0.42668,0.480002 -0.87335,0.913335 -1.34,1.3 -0.46668,0.386668 -0.97335,0.720001 -1.52,1 -0.53335,0.28 -1.11334,0.493333 -1.74,0.64 -0.61334,0.16 -1.28001,0.24 -2,0.24 -1.12001,0 -2.14667,-0.233333 -3.08,-0.7 -0.93334,-0.466666 -1.74,-1.139998 -2.42,-2.02 -0.66667,-0.89333 -1.18667,-1.993329 -1.56,-3.3 -0.36,-1.30666 -0.54,-2.799991 -0.54,-4.48 0,-1.519988 0.20667,-2.93332 0.62,-4.24 0.41333,-1.306651 1.00666,-2.439983 1.78,-3.4 0.77333,-0.959981 1.69999,-1.706647 2.78,-2.24 1.07999,-0.546646 2.29332,-0.819979 3.64,-0.82 1.14666,2.1e-5 2.12665,0.186687 2.94,0.56 0.81332,0.36002 1.53999,0.846686 2.18,1.46 l 0,-10.84 4.94,0 0,29.72 -3.02,0 m -6.58,-3.62 c 1.02666,4e-6 1.89999,-0.21333 2.62,-0.64 0.71999,-0.426662 1.39999,-1.033328 2.04,-1.82 l 0,-9.2 c -0.56001,-0.679984 -1.17335,-1.159984 -1.84,-1.44 -0.65335,-0.279983 -1.36001,-0.419983 -2.12,-0.42 -0.74668,1.7e-5 -1.42668,0.140017 -2.04,0.42 -0.60001,0.280016 -1.11334,0.706683 -1.54,1.28 -0.41334,0.560015 -0.73334,1.280014 -0.96,2.16 -0.22667,0.866679 -0.34001,1.893345 -0.34,3.08 -10e-6,1.200009 0.0933,2.220008 0.28,3.06 0.19999,0.826673 0.47999,1.506672 0.84,2.04 0.35999,0.520005 0.79999,0.900004 1.32,1.14 0.51999,0.22667 1.09999,0.340004 1.74,0.34"
           id="path21831"
           inkscape:connector-curvature="0" />
      </g>
      <g
         transform="matrix(0.39233302,0,0,0.39210579,-68.147189,1137.7002)"
         style="font-size:40px;font-style:normal;font-variant:normal;font-weight:normal;font-stretch:normal;text-align:start;line-height:125%;letter-spacing:0px;word-spacing:0px;text-anchor:start;opacity:0.66000001;fill:#000000;fill-opacity:1;stroke:none;font-family:Lato;-inkscape-font-specification:Lato"
         id="flowRoot11749">
        <path
           d="m 220.24,59.58 4.52,0 c 0.46666,2.9e-5 0.85333,0.113362 1.16,0.34 0.31999,0.213362 0.53333,0.506695 0.64,0.88 l 4.92,17.3 c 0.11999,0.426677 0.22665,0.893343 0.32,1.4 0.10665,0.493342 0.20665,1.020008 0.3,1.58 0.10665,-0.559992 0.21999,-1.086658 0.34,-1.58 0.13332,-0.506657 0.27332,-0.973323 0.42,-1.4 l 5.68,-17.3 c 0.10665,-0.306639 0.31331,-0.586638 0.62,-0.84 0.31998,-0.253305 0.70665,-0.379971 1.16,-0.38 l 1.58,0 c 0.46664,2.9e-5 0.85331,0.113362 1.16,0.34 0.30664,0.213362 0.51998,0.506695 0.64,0.88 l 5.64,17.3 c 0.2933,0.853343 0.54664,1.800009 0.76,2.84 0.0933,-0.519992 0.18664,-1.019991 0.28,-1.5 0.10664,-0.47999 0.2133,-0.926657 0.32,-1.34 l 4.92,-17.3 c 0.0933,-0.333305 0.29996,-0.619972 0.62,-0.86 0.31996,-0.239971 0.70663,-0.359971 1.16,-0.36 l 4.22,0 -8.98,28.92 -4.86,0 -6.32,-19.76 c -0.08,-0.253313 -0.16669,-0.526646 -0.26,-0.82 -0.08,-0.293312 -0.16002,-0.606645 -0.24,-0.94 -0.08,0.333355 -0.16669,0.646688 -0.26,0.94 -0.08,0.293354 -0.16002,0.566687 -0.24,0.82 l -6.38,19.76 -4.86,0 -8.98,-28.92"
           style="font-weight:bold;-inkscape-font-specification:Lato Bold"
           id="path21802"
           inkscape:connector-curvature="0" />
        <path
           d="m 272.21375,67.66 c 1.29332,2.1e-5 2.47999,0.206687 3.56,0.62 1.09332,0.413353 2.03332,1.020019 2.82,1.82 0.78665,0.786684 1.39998,1.760017 1.84,2.92 0.43998,1.146681 0.65998,2.460013 0.66,3.94 -2e-5,0.373344 -0.02,0.686678 -0.06,0.94 -0.0267,0.24001 -0.0867,0.433343 -0.18,0.58 -0.08,0.133343 -0.19335,0.233343 -0.34,0.3 -0.14669,0.05334 -0.33335,0.08001 -0.56,0.08 l -12.68,0 c 0.14666,2.106674 0.71333,3.653339 1.7,4.64 0.98666,0.986671 2.29332,1.480004 3.92,1.48 0.79999,4e-6 1.48665,-0.09333 2.06,-0.28 0.58665,-0.186663 1.09332,-0.393329 1.52,-0.62 0.43998,-0.226662 0.81998,-0.433328 1.14,-0.62 0.33332,-0.186661 0.65332,-0.279995 0.96,-0.28 0.19998,5e-6 0.37332,0.04 0.52,0.12 0.14665,0.08 0.27332,0.193338 0.38,0.34 l 1.44,1.8 c -0.54669,0.640002 -1.16002,1.180002 -1.84,1.62 -0.68002,0.426668 -1.39335,0.773334 -2.14,1.04 -0.73335,0.253333 -1.48668,0.433333 -2.26,0.54 -0.76001,0.106666 -1.50001,0.16 -2.22,0.16 -1.42668,0 -2.75334,-0.233333 -3.98,-0.7 -1.22667,-0.479999 -2.29334,-1.179998 -3.2,-2.1 -0.90667,-0.93333 -1.62,-2.079995 -2.14,-3.44 -0.52,-1.373326 -0.78,-2.959991 -0.78,-4.76 0,-1.399988 0.22667,-2.71332 0.68,-3.94 0.45333,-1.239984 1.1,-2.313316 1.94,-3.22 0.85333,-0.919981 1.88666,-1.646647 3.1,-2.18 1.22666,-0.533313 2.60666,-0.799979 4.14,-0.8 m 0.1,3.54 c -1.44001,1.7e-5 -2.56668,0.406684 -3.38,1.22 -0.81334,0.813349 -1.33334,1.966681 -1.56,3.46 l 9.28,0 c -2e-5,-0.639987 -0.0867,-1.239986 -0.26,-1.8 -0.17335,-0.573318 -0.44001,-1.073318 -0.8,-1.5 -0.36001,-0.42665 -0.81335,-0.759983 -1.36,-1 -0.54668,-0.253316 -1.18668,-0.379983 -1.92,-0.38"
           style="font-weight:bold;-inkscape-font-specification:Lato Bold"
           id="path21804"
           inkscape:connector-curvature="0" />
        <path
           d="m 285.2,88.5 0,-29.72 4.94,0 0,11.72 c 0.81332,-0.866648 1.73332,-1.553314 2.76,-2.06 1.02666,-0.519979 2.22665,-0.779979 3.6,-0.78 1.11998,2.1e-5 2.13998,0.233354 3.06,0.7 0.93332,0.453353 1.73331,1.120019 2.4,2 0.67998,0.880017 1.19998,1.966683 1.56,3.26 0.37331,1.293347 0.55998,2.780012 0.56,4.46 -2e-5,1.533342 -0.20669,2.953341 -0.62,4.26 -0.41335,1.306672 -1.00669,2.440004 -1.78,3.4 -0.76002,0.960002 -1.68668,1.713334 -2.78,2.26 -1.08002,0.533333 -2.29335,0.8 -3.64,0.8 -0.62668,0 -1.20001,-0.06667 -1.72,-0.2 -0.52001,-0.12 -0.99334,-0.293333 -1.42,-0.52 -0.42668,-0.226666 -0.82668,-0.499999 -1.2,-0.82 -0.36001,-0.333332 -0.70667,-0.699998 -1.04,-1.1 l -0.22,1.38 c -0.08,0.346667 -0.22001,0.593334 -0.42,0.74 -0.18667,0.146667 -0.44667,0.22 -0.78,0.22 l -3.26,0 m 9.6,-17 c -1.02668,1.7e-5 -1.90668,0.220017 -2.64,0.66 -0.72001,0.426683 -1.39334,1.033349 -2.02,1.82 l 0,9.2 c 0.55999,0.693338 1.16666,1.180004 1.82,1.46 0.66666,0.26667 1.38666,0.400003 2.16,0.4 0.74665,3e-6 1.41999,-0.139996 2.02,-0.42 0.59999,-0.279996 1.10665,-0.706662 1.52,-1.28 0.42665,-0.573328 0.75332,-1.293327 0.98,-2.16 0.22665,-0.879992 0.33998,-1.913324 0.34,-3.1 -2e-5,-1.199988 -0.10002,-2.213321 -0.3,-3.04 -0.18668,-0.839986 -0.46002,-1.519985 -0.82,-2.04 -0.36002,-0.519984 -0.80001,-0.899984 -1.32,-1.14 -0.50668,-0.239983 -1.08668,-0.359983 -1.74,-0.36"
           style="font-weight:bold;-inkscape-font-specification:Lato Bold"
           id="path21806"
           inkscape:connector-curvature="0" />
      </g>
      <g
         transform="matrix(0.39233302,0,0,0.39210579,-199.49547,1137.7002)"
         style="font-size:40px;font-style:normal;font-variant:normal;font-weight:bold;font-stretch:normal;text-align:center;line-height:125%;letter-spacing:0px;word-spacing:0px;text-anchor:middle;opacity:0.66000001;fill:#000000;fill-opacity:1;stroke:none;font-family:Lato;-inkscape-font-specification:Lato Bold"
         id="flowRoot11757">
        <path
           d="m 884.05094,88.5 -4.16,0 c -0.46669,0 -0.85336,-0.113333 -1.16,-0.34 -0.29336,-0.239999 -0.50669,-0.533332 -0.64,-0.88 l -2.16,-5.9 -11.98,0 -2.16,5.9 c -0.10668,0.306668 -0.32001,0.586667 -0.64,0.84 -0.30667,0.253333 -0.68667,0.38 -1.14,0.38 l -4.18,0 11.36,-28.92 5.5,0 11.36,28.92 m -18.72,-10.92 9.22,0 -3.52,-9.62 c -0.16002,-0.426646 -0.34002,-0.926645 -0.54,-1.5 -0.18668,-0.586644 -0.37335,-1.219977 -0.56,-1.9 -0.18668,0.680023 -0.37335,1.313356 -0.56,1.9 -0.17335,0.586688 -0.34668,1.100021 -0.52,1.54 l -3.52,9.58"
           id="path21775"
           inkscape:connector-curvature="0" />
        <path
           d="m 886.78844,95.2 0,-27.22 3.02,0 c 0.31999,2.1e-5 0.59332,0.07335 0.82,0.22 0.22666,0.146687 0.37332,0.373353 0.44,0.68 l 0.4,1.9 c 0.82666,-0.946648 1.77332,-1.713314 2.84,-2.3 1.07999,-0.586646 2.33998,-0.879979 3.78,-0.88 1.11998,2.1e-5 2.13998,0.233354 3.06,0.7 0.93331,0.466686 1.73331,1.146686 2.4,2.04 0.67998,0.880017 1.19998,1.97335 1.56,3.28 0.37331,1.293347 0.55998,2.780012 0.56,4.46 -2e-5,1.533342 -0.20669,2.953341 -0.62,4.26 -0.41336,1.306672 -1.00669,2.440004 -1.78,3.4 -0.76002,0.960002 -1.68669,1.713334 -2.78,2.26 -1.08002,0.533333 -2.29335,0.8 -3.64,0.8 -1.16001,0 -2.14668,-0.173333 -2.96,-0.52 -0.80001,-0.359999 -1.52001,-0.853332 -2.16,-1.48 l 0,8.4 -4.94,0 m 9.6,-23.7 c -1.02668,1.7e-5 -1.90668,0.220017 -2.64,0.66 -0.72001,0.426683 -1.39334,1.033349 -2.02,1.82 l 0,9.2 c 0.55999,0.693338 1.16666,1.180004 1.82,1.46 0.66665,0.26667 1.37999,0.400003 2.14,0.4 0.74665,3e-6 1.41998,-0.139996 2.02,-0.42 0.61332,-0.279996 1.12665,-0.706662 1.54,-1.28 0.42665,-0.573328 0.75331,-1.293327 0.98,-2.16 0.22665,-0.879992 0.33998,-1.913324 0.34,-3.1 -2e-5,-1.199988 -0.10002,-2.213321 -0.3,-3.04 -0.18669,-0.839986 -0.46002,-1.519985 -0.82,-2.04 -0.36002,-0.519984 -0.80002,-0.899984 -1.32,-1.14 -0.50668,-0.239983 -1.08668,-0.359983 -1.74,-0.36"
           id="path21777"
           inkscape:connector-curvature="0" />
        <path
           d="m 925.52469,88.5 -2.22,0 c -0.46669,0 -0.83335,-0.06667 -1.1,-0.2 -0.26668,-0.146666 -0.46668,-0.433333 -0.6,-0.86 l -0.44,-1.46 c -0.52002,0.466669 -1.03335,0.880002 -1.54,1.24 -0.49335,0.346668 -1.00668,0.640001 -1.54,0.88 -0.53335,0.24 -1.10001,0.42 -1.7,0.54 -0.60001,0.12 -1.26668,0.18 -2,0.18 -0.86668,0 -1.66668,-0.113334 -2.4,-0.34 -0.73334,-0.24 -1.36667,-0.593333 -1.9,-1.06 -0.52001,-0.466665 -0.92667,-1.046665 -1.22,-1.74 -0.29334,-0.69333 -0.44,-1.499996 -0.44,-2.42 0,-0.773327 0.2,-1.533327 0.6,-2.28 0.41333,-0.759992 1.09333,-1.439991 2.04,-2.04 0.94666,-0.613323 2.20666,-1.119989 3.78,-1.52 1.57332,-0.399989 3.52665,-0.626655 5.86,-0.68 l 0,-1.2 c -2e-5,-1.373319 -0.29335,-2.386651 -0.88,-3.04 -0.57335,-0.66665 -1.41335,-0.999983 -2.52,-1 -0.80001,1.7e-5 -1.46668,0.09335 -2,0.28 -0.53334,0.186683 -1.00001,0.400016 -1.4,0.64 -0.38668,0.226683 -0.74668,0.433349 -1.08,0.62 -0.33334,0.186682 -0.70001,0.280015 -1.1,0.28 -0.33334,1.5e-5 -0.62001,-0.08665 -0.86,-0.26 -0.24001,-0.173318 -0.43334,-0.386651 -0.58,-0.64 l -0.9,-1.58 c 2.35999,-2.15998 5.20666,-3.239979 8.54,-3.24 1.19999,2.1e-5 2.26665,0.200021 3.2,0.6 0.94665,0.386687 1.74665,0.933353 2.4,1.64 0.65331,0.693351 1.14665,1.526684 1.48,2.5 0.34665,0.973349 0.51998,2.040014 0.52,3.2 l 0,12.96 m -9.6,-3.08 c 0.50665,3e-6 0.97332,-0.04666 1.4,-0.14 0.42665,-0.09333 0.82665,-0.23333 1.2,-0.42 0.38665,-0.186663 0.75332,-0.413329 1.1,-0.68 0.35998,-0.279995 0.71998,-0.606662 1.08,-0.98 l 0,-3.46 c -1.44001,0.06668 -2.64668,0.193342 -3.62,0.38 -0.96001,0.173342 -1.73334,0.400008 -2.32,0.68 -0.58668,0.280007 -1.00668,0.606674 -1.26,0.98 -0.24001,0.37334 -0.36001,0.780006 -0.36,1.22 -10e-6,0.866671 0.25332,1.486671 0.76,1.86 0.51999,0.373337 1.19332,0.560003 2.02,0.56"
           id="path21779"
           inkscape:connector-curvature="0" />
        <path
           d="m 944.80219,72.32 c -0.14669,0.186683 -0.29335,0.333349 -0.44,0.44 -0.13335,0.106682 -0.33335,0.160016 -0.6,0.16 -0.25335,1.6e-5 -0.50002,-0.07332 -0.74,-0.22 -0.24002,-0.159984 -0.52668,-0.333317 -0.86,-0.52 -0.33335,-0.199983 -0.73335,-0.373317 -1.2,-0.52 -0.45335,-0.159983 -1.02001,-0.239983 -1.7,-0.24 -0.86668,1.7e-5 -1.62668,0.160017 -2.28,0.48 -0.65334,0.306683 -1.20001,0.753349 -1.64,1.34 -0.42668,0.586681 -0.74668,1.300014 -0.96,2.14 -0.21334,0.826679 -0.32001,1.766678 -0.32,2.82 -10e-6,1.093343 0.11332,2.066675 0.34,2.92 0.23999,0.85334 0.57999,1.573339 1.02,2.16 0.43999,0.573338 0.97332,1.013338 1.6,1.32 0.62665,0.293337 1.33332,0.440003 2.12,0.44 0.78665,3e-6 1.41998,-0.09333 1.9,-0.28 0.49332,-0.199996 0.90665,-0.413329 1.24,-0.64 0.33332,-0.239995 0.61998,-0.453328 0.86,-0.64 0.25332,-0.199995 0.53331,-0.299995 0.84,-0.3 0.39998,5e-6 0.69998,0.153338 0.9,0.46 l 1.42,1.8 c -0.54669,0.640002 -1.14002,1.180002 -1.78,1.62 -0.64002,0.426668 -1.30668,0.773334 -2,1.04 -0.68002,0.253333 -1.38668,0.433333 -2.12,0.54 -0.73335,0.106666 -1.46001,0.16 -2.18,0.16 -1.26668,0 -2.46001,-0.233333 -3.58,-0.7 -1.12001,-0.479999 -2.10001,-1.173332 -2.94,-2.08 -0.82667,-0.906663 -1.48667,-2.013329 -1.98,-3.32 -0.48,-1.319993 -0.72,-2.819991 -0.72,-4.5 0,-1.506655 0.21333,-2.899987 0.64,-4.18 0.44,-1.293318 1.07999,-2.40665 1.92,-3.34 0.83999,-0.946648 1.87999,-1.686647 3.12,-2.22 1.23999,-0.533313 2.66665,-0.799979 4.28,-0.8 1.53332,2.1e-5 2.87332,0.246687 4.02,0.74 1.15998,0.493353 2.19998,1.200019 3.12,2.12 l -1.3,1.8"
           id="path21781"
           inkscape:connector-curvature="0" />
        <path
           d="m 949.44469,88.5 0,-29.72 4.94,0 0,11.42 c 0.79999,-0.759981 1.67999,-1.373314 2.64,-1.84 0.95999,-0.466646 2.08665,-0.699979 3.38,-0.7 1.11998,2.1e-5 2.11332,0.193354 2.98,0.58 0.86665,0.373353 1.58665,0.906686 2.16,1.6 0.58664,0.680018 1.02664,1.500017 1.32,2.46 0.30664,0.946682 0.45998,1.993348 0.46,3.14 l 0,13.06 -4.94,0 0,-13.06 c -2e-5,-1.253319 -0.29335,-2.219985 -0.88,-2.9 -0.57335,-0.693317 -1.44002,-1.039983 -2.6,-1.04 -0.85335,1.7e-5 -1.65335,0.19335 -2.4,0.58 -0.74668,0.386683 -1.45334,0.913349 -2.12,1.58 l 0,14.84 -4.94,0"
           id="path21783"
           inkscape:connector-curvature="0" />
        <path
           d="m 980.65906,67.66 c 1.29332,2.1e-5 2.47999,0.206687 3.56,0.62 1.09332,0.413353 2.03332,1.020019 2.82,1.82 0.78665,0.786684 1.39998,1.760017 1.84,2.92 0.43998,1.146681 0.65998,2.460013 0.66,3.94 -2e-5,0.373344 -0.02,0.686678 -0.06,0.94 -0.0267,0.24001 -0.0867,0.433343 -0.18,0.58 -0.08,0.133343 -0.19335,0.233343 -0.34,0.3 -0.14668,0.05334 -0.33335,0.08001 -0.56,0.08 l -12.68,0 c 0.14666,2.106674 0.71333,3.653339 1.7,4.64 0.98666,0.986671 2.29333,1.480004 3.92,1.48 0.79999,4e-6 1.48666,-0.09333 2.06,-0.28 0.58665,-0.186663 1.09332,-0.393329 1.52,-0.62 0.43999,-0.226662 0.81999,-0.433328 1.14,-0.62 0.33332,-0.186661 0.65332,-0.279995 0.96,-0.28 0.19998,5e-6 0.37332,0.04 0.52,0.12 0.14665,0.08 0.27332,0.193338 0.38,0.34 l 1.44,1.8 c -0.54668,0.640002 -1.16002,1.180002 -1.84,1.62 -0.68001,0.426668 -1.39335,0.773334 -2.14,1.04 -0.73335,0.253333 -1.48668,0.433333 -2.26,0.54 -0.76001,0.106666 -1.50001,0.16 -2.22,0.16 -1.42667,0 -2.75334,-0.233333 -3.98,-0.7 -1.22667,-0.479999 -2.29334,-1.179998 -3.2,-2.1 -0.90667,-0.93333 -1.62,-2.079995 -2.14,-3.44 -0.52,-1.373326 -0.78,-2.959991 -0.78,-4.76 0,-1.399988 0.22667,-2.71332 0.68,-3.94 0.45333,-1.239984 1.1,-2.313316 1.94,-3.22 0.85333,-0.919981 1.88666,-1.646647 3.1,-2.18 1.22666,-0.533313 2.60666,-0.799979 4.14,-0.8 m 0.1,3.54 c -1.44001,1.7e-5 -2.56667,0.406684 -3.38,1.22 -0.81334,0.813349 -1.33334,1.966681 -1.56,3.46 l 9.28,0 c -10e-6,-0.639987 -0.0867,-1.239986 -0.26,-1.8 -0.17335,-0.573318 -0.44001,-1.073318 -0.8,-1.5 -0.36001,-0.42665 -0.81334,-0.759983 -1.36,-1 -0.54668,-0.253316 -1.18668,-0.379983 -1.92,-0.38"
           id="path21785"
           inkscape:connector-curvature="0" />
        <path
           d="m 869.60469,131.68 c 0.29331,1e-5 0.54664,0.11334 0.76,0.34 l 2.12,2.3 c -1.17336,1.45334 -2.62003,2.56667 -4.34,3.34 -1.70669,0.77333 -3.76002,1.16 -6.16,1.16 -2.14668,0 -4.08001,-0.36667 -5.8,-1.1 -1.70668,-0.73333 -3.16668,-1.75333 -4.38,-3.06 -1.21334,-1.30666 -2.14667,-2.86666 -2.8,-4.68 -0.64,-1.81332 -0.96,-3.79332 -0.96,-5.94 0,-2.17332 0.36,-4.15998 1.08,-5.96 0.71999,-1.81331 1.73333,-3.37331 3.04,-4.68 1.30666,-1.30664 2.86666,-2.31997 4.68,-3.04 1.82665,-0.7333 3.83998,-1.09997 6.04,-1.1 2.14665,3e-5 4.01998,0.3467 5.62,1.04 1.61331,0.68003 2.99331,1.58669 4.14,2.72 l -1.8,2.5 c -0.10669,0.16002 -0.24669,0.30002 -0.42,0.42 -0.16003,0.12002 -0.38669,0.18002 -0.68,0.18 -0.30669,2e-5 -0.62002,-0.11998 -0.94,-0.36 -0.32002,-0.23998 -0.72669,-0.49998 -1.22,-0.78 -0.49336,-0.27998 -1.12002,-0.53998 -1.88,-0.78 -0.74669,-0.23998 -1.70002,-0.35998 -2.86,-0.36 -1.36002,2e-5 -2.61335,0.24002 -3.76,0.72 -1.13335,0.46669 -2.11335,1.14002 -2.94,2.02 -0.81334,0.88002 -1.45334,1.95335 -1.92,3.22 -0.45334,1.25335 -0.68001,2.66668 -0.68,4.24 -10e-6,1.62668 0.22666,3.07334 0.68,4.34 0.46666,1.26668 1.09332,2.33334 1.88,3.2 0.78665,0.86667 1.71332,1.53334 2.78,2 1.06665,0.45334 2.21332,0.68 3.44,0.68 0.73331,0 1.39331,-0.04 1.98,-0.12 0.59998,-0.08 1.14665,-0.20666 1.64,-0.38 0.50664,-0.17333 0.97998,-0.39333 1.42,-0.66 0.45331,-0.27999 0.89998,-0.61999 1.34,-1.02 0.13331,-0.11999 0.27331,-0.21333 0.42,-0.28 0.14664,-0.08 0.30664,-0.11999 0.48,-0.12"
           id="path21787"
           inkscape:connector-curvature="0" />
        <path
           d="m 885.00156,117.66 c 1.53332,2e-5 2.91999,0.24669 4.16,0.74 1.25332,0.49335 2.31998,1.19335 3.2,2.1 0.87998,0.90668 1.55998,2.01335 2.04,3.32 0.47998,1.30668 0.71998,2.76668 0.72,4.38 -2e-5,1.62668 -0.24002,3.09334 -0.72,4.4 -0.48002,1.30667 -1.16002,2.42 -2.04,3.34 -0.88002,0.92 -1.94668,1.62667 -3.2,2.12 -1.24001,0.49333 -2.62668,0.74 -4.16,0.74 -1.53334,0 -2.92667,-0.24667 -4.18,-0.74 -1.25334,-0.49333 -2.32667,-1.2 -3.22,-2.12 -0.88,-0.92 -1.56667,-2.03333 -2.06,-3.34 -0.48,-1.30666 -0.72,-2.77332 -0.72,-4.4 0,-1.61332 0.24,-3.07332 0.72,-4.38 0.49333,-1.30665 1.18,-2.41332 2.06,-3.32 0.89333,-0.90665 1.96666,-1.60665 3.22,-2.1 1.25333,-0.49331 2.64666,-0.73998 4.18,-0.74 m 0,17.34 c 1.70666,0 2.96665,-0.57333 3.78,-1.72 0.82665,-1.14666 1.23999,-2.82666 1.24,-5.04 -10e-6,-2.21332 -0.41335,-3.89999 -1.24,-5.06 -0.81335,-1.15998 -2.07334,-1.73998 -3.78,-1.74 -1.73334,2e-5 -3.01334,0.58668 -3.84,1.76 -0.82667,1.16001 -1.24,2.84001 -1.24,5.04 0,2.20001 0.41333,3.88001 1.24,5.04 0.82666,1.14667 2.10666,1.72 3.84,1.72"
           id="path21789"
           inkscape:connector-curvature="0" />
        <path
           d="m 898.97594,138.5 0,-20.52 2.9,0 c 0.50666,2e-5 0.85999,0.0934 1.06,0.28 0.19999,0.18669 0.33332,0.50669 0.4,0.96 l 0.3,2.48 c 0.73332,-1.26665 1.59332,-2.26665 2.58,-3 0.98665,-0.73331 2.09332,-1.09998 3.32,-1.1 1.01332,2e-5 1.85332,0.23335 2.52,0.7 l -0.64,3.7 c -0.04,0.24002 -0.12668,0.41335 -0.26,0.52 -0.13335,0.0934 -0.31335,0.14002 -0.54,0.14 -0.20002,2e-5 -0.47335,-0.0466 -0.82,-0.14 -0.34668,-0.0933 -0.80668,-0.13998 -1.38,-0.14 -1.02668,2e-5 -1.90668,0.28668 -2.64,0.86 -0.73334,0.56001 -1.35334,1.38668 -1.86,2.48 l 0,12.78 -4.94,0"
           id="path21791"
           inkscape:connector-curvature="0" />
        <path
           d="m 929.74406,138.5 c -0.64001,0 -1.06001,-0.3 -1.26,-0.9 l -0.4,-1.98 c -0.42668,0.48 -0.87335,0.91334 -1.34,1.3 -0.46668,0.38667 -0.97334,0.72 -1.52,1 -0.53334,0.28 -1.11334,0.49333 -1.74,0.64 -0.61334,0.16 -1.28001,0.24 -2,0.24 -1.12001,0 -2.14667,-0.23333 -3.08,-0.7 -0.93334,-0.46667 -1.74,-1.14 -2.42,-2.02 -0.66667,-0.89333 -1.18667,-1.99333 -1.56,-3.3 -0.36,-1.30666 -0.54,-2.79999 -0.54,-4.48 0,-1.51999 0.20667,-2.93332 0.62,-4.24 0.41333,-1.30665 1.00667,-2.43998 1.78,-3.4 0.77333,-0.95998 1.7,-1.70665 2.78,-2.24 1.08,-0.54665 2.29333,-0.81998 3.64,-0.82 1.14666,2e-5 2.12666,0.18669 2.94,0.56 0.81332,0.36002 1.53999,0.84669 2.18,1.46 l 0,-10.84 4.94,0 0,29.72 -3.02,0 m -6.58,-3.62 c 1.02666,0 1.89999,-0.21333 2.62,-0.64 0.71999,-0.42666 1.39999,-1.03333 2.04,-1.82 l 0,-9.2 c -0.56001,-0.67998 -1.17334,-1.15998 -1.84,-1.44 -0.65334,-0.27998 -1.36001,-0.41998 -2.12,-0.42 -0.74667,2e-5 -1.42667,0.14002 -2.04,0.42 -0.60001,0.28002 -1.11334,0.70668 -1.54,1.28 -0.41334,0.56001 -0.73334,1.28001 -0.96,2.16 -0.22667,0.86668 -0.34,1.89334 -0.34,3.08 0,1.20001 0.0933,2.22001 0.28,3.06 0.2,0.82667 0.48,1.50667 0.84,2.04 0.35999,0.52 0.79999,0.9 1.32,1.14 0.51999,0.22667 1.09999,0.34 1.74,0.34"
           id="path21793"
           inkscape:connector-curvature="0" />
        <path
           d="m 946.87656,117.66 c 1.53332,2e-5 2.91999,0.24669 4.16,0.74 1.25332,0.49335 2.31998,1.19335 3.2,2.1 0.87998,0.90668 1.55998,2.01335 2.04,3.32 0.47998,1.30668 0.71998,2.76668 0.72,4.38 -2e-5,1.62668 -0.24002,3.09334 -0.72,4.4 -0.48002,1.30667 -1.16002,2.42 -2.04,3.34 -0.88002,0.92 -1.94668,1.62667 -3.2,2.12 -1.24001,0.49333 -2.62668,0.74 -4.16,0.74 -1.53334,0 -2.92667,-0.24667 -4.18,-0.74 -1.25334,-0.49333 -2.32667,-1.2 -3.22,-2.12 -0.88,-0.92 -1.56667,-2.03333 -2.06,-3.34 -0.48,-1.30666 -0.72,-2.77332 -0.72,-4.4 0,-1.61332 0.24,-3.07332 0.72,-4.38 0.49333,-1.30665 1.18,-2.41332 2.06,-3.32 0.89333,-0.90665 1.96666,-1.60665 3.22,-2.1 1.25333,-0.49331 2.64666,-0.73998 4.18,-0.74 m 0,17.34 c 1.70666,0 2.96665,-0.57333 3.78,-1.72 0.82665,-1.14666 1.23999,-2.82666 1.24,-5.04 -10e-6,-2.21332 -0.41335,-3.89999 -1.24,-5.06 -0.81335,-1.15998 -2.07334,-1.73998 -3.78,-1.74 -1.73334,2e-5 -3.01334,0.58668 -3.84,1.76 -0.82667,1.16001 -1.24,2.84001 -1.24,5.04 0,2.20001 0.41333,3.88001 1.24,5.04 0.82666,1.14667 2.10666,1.72 3.84,1.72"
           id="path21795"
           inkscape:connector-curvature="0" />
        <path
           d="m 970.50594,138.5 -4.48,0 -8.16,-20.52 4.1,0 c 0.35999,2e-5 0.65999,0.0867 0.9,0.26 0.25333,0.17335 0.42666,0.39335 0.52,0.66 l 3.96,10.96 c 0.22665,0.64001 0.41332,1.26667 0.56,1.88 0.15999,0.61334 0.29999,1.22667 0.42,1.84 0.11999,-0.61333 0.25332,-1.22666 0.4,-1.84 0.15999,-0.61333 0.35999,-1.23999 0.6,-1.88 l 4.06,-10.96 c 0.0933,-0.26665 0.25998,-0.48665 0.5,-0.66 0.23998,-0.17331 0.52665,-0.25998 0.86,-0.26 l 3.9,0 -8.14,20.52"
           id="path21797"
           inkscape:connector-curvature="0" />
        <path
           d="m 997.63406,138.5 -2.22,0 c -0.46668,0 -0.83335,-0.0667 -1.1,-0.2 -0.26668,-0.14667 -0.46668,-0.43333 -0.6,-0.86 l -0.44,-1.46 c -0.52001,0.46667 -1.03334,0.88 -1.54,1.24 -0.49334,0.34667 -1.00668,0.64 -1.54,0.88 -0.53334,0.24 -1.10001,0.42 -1.7,0.54 -0.60001,0.12 -1.26667,0.18 -2,0.18 -0.86667,0 -1.66667,-0.11333 -2.4,-0.34 -0.73334,-0.24 -1.36667,-0.59333 -1.9,-1.06 -0.52,-0.46667 -0.92667,-1.04666 -1.22,-1.74 -0.29333,-0.69333 -0.44,-1.5 -0.44,-2.42 0,-0.77333 0.2,-1.53333 0.6,-2.28 0.41333,-0.75999 1.09333,-1.43999 2.04,-2.04 0.94666,-0.61332 2.20666,-1.11999 3.78,-1.52 1.57333,-0.39999 3.52666,-0.62665 5.86,-0.68 l 0,-1.2 c -1e-5,-1.37332 -0.29334,-2.38665 -0.88,-3.04 -0.57334,-0.66665 -1.41334,-0.99998 -2.52,-1 -0.80001,2e-5 -1.46667,0.0934 -2,0.28 -0.53334,0.18668 -1.00001,0.40002 -1.4,0.64 -0.38667,0.22668 -0.74667,0.43335 -1.08,0.62 -0.33334,0.18668 -0.7,0.28002 -1.1,0.28 -0.33334,2e-5 -0.62,-0.0866 -0.86,-0.26 -0.24,-0.17332 -0.43333,-0.38665 -0.58,-0.64 l -0.9,-1.58 c 2.36,-2.15998 5.20666,-3.23998 8.54,-3.24 1.19999,2e-5 2.26666,0.20002 3.2,0.6 0.94665,0.38669 1.74665,0.93335 2.4,1.64 0.65332,0.69335 1.14665,1.52668 1.48,2.5 0.34665,0.97335 0.51998,2.04001 0.52,3.2 l 0,12.96 m -9.6,-3.08 c 0.50666,0 0.97333,-0.0467 1.4,-0.14 0.42666,-0.0933 0.82666,-0.23333 1.2,-0.42 0.38666,-0.18666 0.75332,-0.41333 1.1,-0.68 0.35999,-0.28 0.71999,-0.60666 1.08,-0.98 l 0,-3.46 c -1.44001,0.0667 -2.64668,0.19334 -3.62,0.38 -0.96001,0.17334 -1.73334,0.40001 -2.32,0.68 -0.58667,0.28001 -1.00667,0.60667 -1.26,0.98 -0.24,0.37334 -0.36,0.78001 -0.36,1.22 0,0.86667 0.25333,1.48667 0.76,1.86 0.51999,0.37334 1.19333,0.56 2.02,0.56"
           id="path21799"
           inkscape:connector-curvature="0" />
      </g>
      <g
         transform="translate(-419.58454,858.21393)"
         id="g20613">
        <rect
           ry="4.5"
           rx="4.5"
           y="227.36218"
           x="311"
           height="54"
           width="33"
           id="rect20574"
           style="color:#000000;fill:#323232;fill-opacity:1;fill-rule:nonzero;stroke:none;stroke-width:1.99999988;marker:none;visibility:visible;display:inline;overflow:visible;enable-background:accumulate" />
        <g
           id="g20582"
           transform="translate(-0.49999618,0)">
          <path
             sodipodi:type="arc"
             style="color:#000000;fill:#ffffff;fill-opacity:1;fill-rule:nonzero;stroke:none;stroke-width:1.99999988;marker:none;visibility:visible;display:inline;overflow:visible;enable-background:accumulate"
             id="path20576"
             sodipodi:cx="299"
             sodipodi:cy="156.36218"
             sodipodi:rx="5"
             sodipodi:ry="5"
             d="m 304,156.36218 c 0,2.76143 -2.23858,5 -5,5 -2.76142,0 -5,-2.23857 -5,-5 0,-2.76142 2.23858,-5 5,-5 2.76142,0 5,2.23858 5,5 z"
             transform="matrix(0.29999982,0,0,0.29999924,238.30005,227.95365)" />
          <path
             transform="matrix(0.29999982,0,0,0.29999924,233.30005,227.95365)"
             d="m 304,156.36218 c 0,2.76143 -2.23858,5 -5,5 -2.76142,0 -5,-2.23857 -5,-5 0,-2.76142 2.23858,-5 5,-5 2.76142,0 5,2.23858 5,5 z"
             sodipodi:ry="5"
             sodipodi:rx="5"
             sodipodi:cy="156.36218"
             sodipodi:cx="299"
             id="path20587"
             style="color:#000000;fill:#ffffff;fill-opacity:1;fill-rule:nonzero;stroke:none;stroke-width:1.99999988;marker:none;visibility:visible;display:inline;overflow:visible;enable-background:accumulate"
             sodipodi:type="arc" />
          <path
             transform="matrix(0.29999982,0,0,0.29999924,243.30005,227.95365)"
             d="m 304,156.36218 c 0,2.76143 -2.23858,5 -5,5 -2.76142,0 -5,-2.23857 -5,-5 0,-2.76142 2.23858,-5 5,-5 2.76142,0 5,2.23858 5,5 z"
             sodipodi:ry="5"
             sodipodi:rx="5"
             sodipodi:cy="156.36218"
             sodipodi:cx="299"
             id="path20589"
             style="color:#000000;fill:#ffffff;fill-opacity:1;fill-rule:nonzero;stroke:none;stroke-width:1.99999988;marker:none;visibility:visible;display:inline;overflow:visible;enable-background:accumulate"
             sodipodi:type="arc" />
        </g>
      </g>
    </g>
  </g>
</svg>
